<svg xmlns="http://www.w3.org/2000/svg" xmlns:xlink="http://www.w3.org/1999/xlink" width="500" zoomAndPan="magnify" viewBox="0 0 375 374.999991" height="500" preserveAspectRatio="xMidYMid meet" version="1.0"><defs><g/><clipPath id="49cb52c9a9"><path d="M 0 215.5625 L 374.621094 215.5625 L 374.621094 222.074219 L 0 222.074219 Z M 0 215.5625 " clip-rule="nonzero"/></clipPath></defs><g fill="#231f20" fill-opacity="1"><g transform="translate(41.009598, 196.750238)"><g><path d="M 15 0 L 0.796875 0 L 0.796875 -0.3125 C 1.523438 -0.5 2.046875 -0.941406 2.359375 -1.640625 C 2.679688 -2.335938 2.84375 -3.265625 2.84375 -4.421875 L 2.84375 -31.59375 C 2.84375 -32.769531 2.679688 -33.703125 2.359375 -34.390625 C 2.046875 -35.078125 1.523438 -35.515625 0.796875 -35.703125 L 0.796875 -36.015625 L 19.265625 -36.015625 C 21.316406 -36.015625 23.15625 -35.550781 24.78125 -34.625 C 26.414062 -33.695312 27.710938 -32.394531 28.671875 -30.71875 C 29.628906 -29.050781 30.109375 -27.097656 30.109375 -24.859375 C 30.109375 -22.273438 29.582031 -20.113281 28.53125 -18.375 C 27.476562 -16.632812 26.023438 -15.328125 24.171875 -14.453125 C 22.316406 -13.578125 20.175781 -13.140625 17.75 -13.140625 L 12.953125 -13.140625 L 12.953125 -4.421875 C 12.953125 -3.265625 13.109375 -2.335938 13.421875 -1.640625 C 13.742188 -0.941406 14.269531 -0.5 15 -0.3125 Z M 12.953125 -35.421875 L 12.953125 -13.9375 L 13.546875 -13.9375 C 14.773438 -13.9375 15.78125 -14.21875 16.5625 -14.78125 C 17.351562 -15.351562 17.972656 -16.144531 18.421875 -17.15625 C 18.878906 -18.164062 19.195312 -19.332031 19.375 -20.65625 C 19.5625 -21.988281 19.65625 -23.398438 19.65625 -24.890625 C 19.65625 -26.222656 19.554688 -27.503906 19.359375 -28.734375 C 19.171875 -29.960938 18.828125 -31.066406 18.328125 -32.046875 C 17.835938 -33.023438 17.160156 -33.816406 16.296875 -34.421875 C 15.429688 -35.023438 14.316406 -35.359375 12.953125 -35.421875 Z M 12.953125 -35.421875 "/></g></g></g><g fill="#231f20" fill-opacity="1"><g transform="translate(71.593093, 196.750238)"><g><path d="M 26.125 0 L 0.796875 0 L 0.796875 -0.3125 C 1.523438 -0.5 2.046875 -0.941406 2.359375 -1.640625 C 2.679688 -2.335938 2.84375 -3.265625 2.84375 -4.421875 L 2.84375 -31.59375 C 2.84375 -32.769531 2.679688 -33.703125 2.359375 -34.390625 C 2.046875 -35.078125 1.523438 -35.515625 0.796875 -35.703125 L 0.796875 -36.015625 L 26.125 -36.015625 L 26.125 -25.15625 L 25.8125 -25.15625 C 25.8125 -25.84375 25.632812 -26.628906 25.28125 -27.515625 C 24.9375 -28.398438 24.4375 -29.304688 23.78125 -30.234375 C 23.132812 -31.160156 22.367188 -32.007812 21.484375 -32.78125 C 20.597656 -33.550781 19.609375 -34.175781 18.515625 -34.65625 C 17.421875 -35.144531 16.25 -35.390625 15 -35.390625 L 12.953125 -35.390625 L 12.953125 -19.5625 L 14.1875 -19.5625 C 14.96875 -19.5625 15.757812 -19.722656 16.5625 -20.046875 C 17.375 -20.367188 18.132812 -20.785156 18.84375 -21.296875 C 19.550781 -21.816406 20.140625 -22.394531 20.609375 -23.03125 C 21.085938 -23.664062 21.378906 -24.273438 21.484375 -24.859375 L 21.796875 -24.859375 L 21.796875 -13.609375 L 21.484375 -13.609375 C 21.378906 -14.222656 21.085938 -14.835938 20.609375 -15.453125 C 20.140625 -16.078125 19.550781 -16.644531 18.84375 -17.15625 C 18.132812 -17.675781 17.375 -18.097656 16.5625 -18.421875 C 15.757812 -18.753906 14.96875 -18.921875 14.1875 -18.921875 L 12.953125 -18.921875 L 12.953125 -0.625 L 15 -0.625 C 16.25 -0.625 17.421875 -0.863281 18.515625 -1.34375 C 19.609375 -1.832031 20.597656 -2.460938 21.484375 -3.234375 C 22.367188 -4.003906 23.132812 -4.851562 23.78125 -5.78125 C 24.4375 -6.707031 24.9375 -7.613281 25.28125 -8.5 C 25.632812 -9.382812 25.8125 -10.175781 25.8125 -10.875 L 26.125 -10.875 Z M 26.125 0 "/></g></g></g><g fill="#231f20" fill-opacity="1"><g transform="translate(97.563781, 196.750238)"><g><path d="M 0.796875 -35.703125 L 0.796875 -36.015625 L 19.015625 -36.015625 C 21.160156 -36.015625 22.945312 -35.640625 24.375 -34.890625 C 25.8125 -34.148438 26.890625 -33.15625 27.609375 -31.90625 C 28.328125 -30.664062 28.6875 -29.296875 28.6875 -27.796875 C 28.6875 -26.242188 28.394531 -24.953125 27.8125 -23.921875 C 27.238281 -22.890625 26.4375 -22.078125 25.40625 -21.484375 C 24.375 -20.890625 23.175781 -20.46875 21.8125 -20.21875 C 20.457031 -19.96875 18.988281 -19.84375 17.40625 -19.84375 C 19.21875 -19.457031 20.695312 -18.878906 21.84375 -18.109375 C 22.988281 -17.347656 23.910156 -16.457031 24.609375 -15.4375 C 25.304688 -14.414062 25.847656 -13.328125 26.234375 -12.171875 C 26.628906 -11.023438 26.953125 -9.878906 27.203125 -8.734375 C 27.453125 -7.585938 27.71875 -6.515625 28 -5.515625 C 28.289062 -4.515625 28.679688 -3.644531 29.171875 -2.90625 C 29.671875 -2.164062 30.351562 -1.640625 31.21875 -1.328125 C 31.21875 -1.328125 31.144531 -1.234375 31 -1.046875 C 30.863281 -0.859375 30.625 -0.628906 30.28125 -0.359375 C 29.9375 -0.0976562 29.445312 0.125 28.8125 0.3125 C 28.175781 0.5 27.363281 0.59375 26.375 0.59375 C 24.394531 0.59375 22.78125 0.3125 21.53125 -0.25 C 20.28125 -0.820312 19.3125 -1.585938 18.625 -2.546875 C 17.9375 -3.503906 17.445312 -4.578125 17.15625 -5.765625 C 16.863281 -6.953125 16.671875 -8.1875 16.578125 -9.46875 C 16.492188 -10.757812 16.429688 -12 16.390625 -13.1875 C 16.347656 -14.375 16.242188 -15.445312 16.078125 -16.40625 C 15.910156 -17.363281 15.585938 -18.128906 15.109375 -18.703125 C 14.640625 -19.273438 13.921875 -19.5625 12.953125 -19.5625 L 12.953125 -4.421875 C 12.953125 -3.265625 13.109375 -2.335938 13.421875 -1.640625 C 13.742188 -0.941406 14.269531 -0.5 15 -0.3125 L 15 0 L 0.796875 0 L 0.796875 -0.3125 C 1.523438 -0.5 2.046875 -0.941406 2.359375 -1.640625 C 2.679688 -2.335938 2.84375 -3.265625 2.84375 -4.421875 L 2.84375 -31.59375 C 2.84375 -32.769531 2.679688 -33.703125 2.359375 -34.390625 C 2.046875 -35.078125 1.523438 -35.515625 0.796875 -35.703125 Z M 13.578125 -35.609375 L 12.953125 -35.609375 L 12.953125 -20.1875 L 14.09375 -20.1875 C 14.894531 -20.1875 15.632812 -20.425781 16.3125 -20.90625 C 17 -21.394531 17.546875 -22.21875 17.953125 -23.375 C 18.367188 -24.53125 18.578125 -26.125 18.578125 -28.15625 C 18.578125 -29.4375 18.425781 -30.644531 18.125 -31.78125 C 17.832031 -32.914062 17.328125 -33.835938 16.609375 -34.546875 C 15.898438 -35.253906 14.890625 -35.609375 13.578125 -35.609375 Z M 13.578125 -35.609375 "/></g></g></g><g fill="#231f20" fill-opacity="1"><g transform="translate(128.147274, 196.750238)"><g><path d="M 18.640625 -4.546875 C 18.640625 -5.941406 18.394531 -7.144531 17.90625 -8.15625 C 17.425781 -9.164062 16.773438 -10.046875 15.953125 -10.796875 C 15.128906 -11.554688 14.207031 -12.25 13.1875 -12.875 C 12.164062 -13.5 11.113281 -14.109375 10.03125 -14.703125 C 8.945312 -15.304688 7.894531 -15.945312 6.875 -16.625 C 5.851562 -17.3125 4.929688 -18.109375 4.109375 -19.015625 C 3.285156 -19.921875 2.628906 -20.988281 2.140625 -22.21875 C 1.660156 -23.457031 1.421875 -24.921875 1.421875 -26.609375 C 1.421875 -28.898438 1.945312 -30.78125 3 -32.25 C 4.050781 -33.726562 5.484375 -34.828125 7.296875 -35.546875 C 9.109375 -36.265625 11.140625 -36.625 13.390625 -36.625 C 14.535156 -36.625 15.566406 -36.570312 16.484375 -36.46875 C 17.410156 -36.375 18.335938 -36.273438 19.265625 -36.171875 C 20.191406 -36.066406 21.226562 -36.015625 22.375 -36.015625 C 22.6875 -36.015625 23.023438 -36.0625 23.390625 -36.15625 C 23.765625 -36.25 24.035156 -36.40625 24.203125 -36.625 L 24.515625 -36.625 L 24.515625 -25.15625 L 24.203125 -25.15625 C 24.097656 -26.007812 23.8125 -26.929688 23.34375 -27.921875 C 22.882812 -28.910156 22.289062 -29.878906 21.5625 -30.828125 C 20.832031 -31.773438 20.015625 -32.644531 19.109375 -33.4375 C 18.203125 -34.226562 17.257812 -34.851562 16.28125 -35.3125 C 15.300781 -35.78125 14.328125 -36.015625 13.359375 -36.015625 C 12.160156 -36.015625 11.144531 -35.640625 10.3125 -34.890625 C 9.476562 -34.148438 9.0625 -33.09375 9.0625 -31.71875 C 9.0625 -30.394531 9.300781 -29.25 9.78125 -28.28125 C 10.269531 -27.3125 10.929688 -26.460938 11.765625 -25.734375 C 12.597656 -25.003906 13.523438 -24.335938 14.546875 -23.734375 C 15.566406 -23.140625 16.628906 -22.550781 17.734375 -21.96875 C 18.847656 -21.394531 19.914062 -20.765625 20.9375 -20.078125 C 21.957031 -19.390625 22.878906 -18.609375 23.703125 -17.734375 C 24.535156 -16.859375 25.191406 -15.820312 25.671875 -14.625 C 26.160156 -13.425781 26.40625 -12.015625 26.40625 -10.390625 C 26.40625 -8.835938 26.097656 -7.390625 25.484375 -6.046875 C 24.878906 -4.710938 24.023438 -3.550781 22.921875 -2.5625 C 21.816406 -1.570312 20.515625 -0.796875 19.015625 -0.234375 C 17.523438 0.316406 15.894531 0.59375 14.125 0.59375 C 12.394531 0.59375 10.828125 0.460938 9.421875 0.203125 C 8.023438 -0.0546875 6.710938 -0.460938 5.484375 -1.015625 C 4.253906 -1.578125 3.023438 -2.300781 1.796875 -3.1875 L 1.796875 -15.140625 L 2.1875 -15.140625 C 2.1875 -14.691406 2.328125 -14.015625 2.609375 -13.109375 C 2.890625 -12.203125 3.289062 -11.179688 3.8125 -10.046875 C 4.34375 -8.910156 4.972656 -7.757812 5.703125 -6.59375 C 6.429688 -5.4375 7.238281 -4.363281 8.125 -3.375 C 9.007812 -2.382812 9.953125 -1.582031 10.953125 -0.96875 C 11.953125 -0.363281 12.988281 -0.0625 14.0625 -0.0625 C 15.238281 -0.0625 16.15625 -0.257812 16.8125 -0.65625 C 17.476562 -1.0625 17.945312 -1.597656 18.21875 -2.265625 C 18.5 -2.941406 18.640625 -3.703125 18.640625 -4.546875 Z M 18.640625 -4.546875 "/></g></g></g><g fill="#231f20" fill-opacity="1"><g transform="translate(155.034204, 196.750238)"><g><path d="M 0.796875 0 L 0.796875 -0.3125 C 1.523438 -0.5 2.046875 -0.941406 2.359375 -1.640625 C 2.679688 -2.335938 2.84375 -3.265625 2.84375 -4.421875 L 2.84375 -31.59375 C 2.84375 -32.769531 2.679688 -33.703125 2.359375 -34.390625 C 2.046875 -35.078125 1.523438 -35.515625 0.796875 -35.703125 L 0.796875 -36.015625 L 15 -36.015625 L 15 -35.703125 C 14.269531 -35.515625 13.742188 -35.078125 13.421875 -34.390625 C 13.109375 -33.703125 12.953125 -32.769531 12.953125 -31.59375 L 12.953125 -4.421875 C 12.953125 -3.265625 13.109375 -2.335938 13.421875 -1.640625 C 13.742188 -0.941406 14.269531 -0.5 15 -0.3125 L 15 0 Z M 0.796875 0 "/></g></g></g><g fill="#231f20" fill-opacity="1"><g transform="translate(169.883612, 196.750238)"><g><path d="M 18.640625 -4.546875 C 18.640625 -5.941406 18.394531 -7.144531 17.90625 -8.15625 C 17.425781 -9.164062 16.773438 -10.046875 15.953125 -10.796875 C 15.128906 -11.554688 14.207031 -12.25 13.1875 -12.875 C 12.164062 -13.5 11.113281 -14.109375 10.03125 -14.703125 C 8.945312 -15.304688 7.894531 -15.945312 6.875 -16.625 C 5.851562 -17.3125 4.929688 -18.109375 4.109375 -19.015625 C 3.285156 -19.921875 2.628906 -20.988281 2.140625 -22.21875 C 1.660156 -23.457031 1.421875 -24.921875 1.421875 -26.609375 C 1.421875 -28.898438 1.945312 -30.78125 3 -32.25 C 4.050781 -33.726562 5.484375 -34.828125 7.296875 -35.546875 C 9.109375 -36.265625 11.140625 -36.625 13.390625 -36.625 C 14.535156 -36.625 15.566406 -36.570312 16.484375 -36.46875 C 17.410156 -36.375 18.335938 -36.273438 19.265625 -36.171875 C 20.191406 -36.066406 21.226562 -36.015625 22.375 -36.015625 C 22.6875 -36.015625 23.023438 -36.0625 23.390625 -36.15625 C 23.765625 -36.25 24.035156 -36.40625 24.203125 -36.625 L 24.515625 -36.625 L 24.515625 -25.15625 L 24.203125 -25.15625 C 24.097656 -26.007812 23.8125 -26.929688 23.34375 -27.921875 C 22.882812 -28.910156 22.289062 -29.878906 21.5625 -30.828125 C 20.832031 -31.773438 20.015625 -32.644531 19.109375 -33.4375 C 18.203125 -34.226562 17.257812 -34.851562 16.28125 -35.3125 C 15.300781 -35.78125 14.328125 -36.015625 13.359375 -36.015625 C 12.160156 -36.015625 11.144531 -35.640625 10.3125 -34.890625 C 9.476562 -34.148438 9.0625 -33.09375 9.0625 -31.71875 C 9.0625 -30.394531 9.300781 -29.25 9.78125 -28.28125 C 10.269531 -27.3125 10.929688 -26.460938 11.765625 -25.734375 C 12.597656 -25.003906 13.523438 -24.335938 14.546875 -23.734375 C 15.566406 -23.140625 16.628906 -22.550781 17.734375 -21.96875 C 18.847656 -21.394531 19.914062 -20.765625 20.9375 -20.078125 C 21.957031 -19.390625 22.878906 -18.609375 23.703125 -17.734375 C 24.535156 -16.859375 25.191406 -15.820312 25.671875 -14.625 C 26.160156 -13.425781 26.40625 -12.015625 26.40625 -10.390625 C 26.40625 -8.835938 26.097656 -7.390625 25.484375 -6.046875 C 24.878906 -4.710938 24.023438 -3.550781 22.921875 -2.5625 C 21.816406 -1.570312 20.515625 -0.796875 19.015625 -0.234375 C 17.523438 0.316406 15.894531 0.59375 14.125 0.59375 C 12.394531 0.59375 10.828125 0.460938 9.421875 0.203125 C 8.023438 -0.0546875 6.710938 -0.460938 5.484375 -1.015625 C 4.253906 -1.578125 3.023438 -2.300781 1.796875 -3.1875 L 1.796875 -15.140625 L 2.1875 -15.140625 C 2.1875 -14.691406 2.328125 -14.015625 2.609375 -13.109375 C 2.890625 -12.203125 3.289062 -11.179688 3.8125 -10.046875 C 4.34375 -8.910156 4.972656 -7.757812 5.703125 -6.59375 C 6.429688 -5.4375 7.238281 -4.363281 8.125 -3.375 C 9.007812 -2.382812 9.953125 -1.582031 10.953125 -0.96875 C 11.953125 -0.363281 12.988281 -0.0625 14.0625 -0.0625 C 15.238281 -0.0625 16.15625 -0.257812 16.8125 -0.65625 C 17.476562 -1.0625 17.945312 -1.597656 18.21875 -2.265625 C 18.5 -2.941406 18.640625 -3.703125 18.640625 -4.546875 Z M 18.640625 -4.546875 "/></g></g></g><g fill="#231f20" fill-opacity="1"><g transform="translate(196.77055, 196.750238)"><g><path d="M 0.796875 -23.859375 L 0.796875 -36.015625 L 28.15625 -36.015625 L 28.15625 -23.859375 L 27.828125 -23.859375 C 27.828125 -24.765625 27.6875 -25.738281 27.40625 -26.78125 C 27.125 -27.820312 26.722656 -28.851562 26.203125 -29.875 C 25.691406 -30.894531 25.09375 -31.820312 24.40625 -32.65625 C 23.71875 -33.488281 22.972656 -34.148438 22.171875 -34.640625 C 21.378906 -35.140625 20.550781 -35.390625 19.6875 -35.390625 L 19.359375 -35.390625 L 19.359375 -4.421875 C 19.359375 -3.265625 19.515625 -2.335938 19.828125 -1.640625 C 20.148438 -0.941406 20.679688 -0.5 21.421875 -0.3125 L 21.421875 0 L 7.203125 0 L 7.203125 -0.3125 C 7.941406 -0.5 8.46875 -0.941406 8.78125 -1.640625 C 9.09375 -2.335938 9.25 -3.265625 9.25 -4.421875 L 9.25 -35.390625 C 8.414062 -35.390625 7.59375 -35.140625 6.78125 -34.640625 C 5.96875 -34.148438 5.21875 -33.488281 4.53125 -32.65625 C 3.84375 -31.820312 3.238281 -30.894531 2.71875 -29.875 C 2.207031 -28.851562 1.8125 -27.820312 1.53125 -26.78125 C 1.25 -25.738281 1.109375 -24.765625 1.109375 -23.859375 Z M 0.796875 -23.859375 "/></g></g></g><g fill="#231f20" fill-opacity="1"><g transform="translate(224.763284, 196.750238)"><g><path d="M 26.125 0 L 0.796875 0 L 0.796875 -0.3125 C 1.523438 -0.5 2.046875 -0.941406 2.359375 -1.640625 C 2.679688 -2.335938 2.84375 -3.265625 2.84375 -4.421875 L 2.84375 -31.59375 C 2.84375 -32.769531 2.679688 -33.703125 2.359375 -34.390625 C 2.046875 -35.078125 1.523438 -35.515625 0.796875 -35.703125 L 0.796875 -36.015625 L 26.125 -36.015625 L 26.125 -25.15625 L 25.8125 -25.15625 C 25.8125 -25.84375 25.632812 -26.628906 25.28125 -27.515625 C 24.9375 -28.398438 24.4375 -29.304688 23.78125 -30.234375 C 23.132812 -31.160156 22.367188 -32.007812 21.484375 -32.78125 C 20.597656 -33.550781 19.609375 -34.175781 18.515625 -34.65625 C 17.421875 -35.144531 16.25 -35.390625 15 -35.390625 L 12.953125 -35.390625 L 12.953125 -19.5625 L 14.1875 -19.5625 C 14.96875 -19.5625 15.757812 -19.722656 16.5625 -20.046875 C 17.375 -20.367188 18.132812 -20.785156 18.84375 -21.296875 C 19.550781 -21.816406 20.140625 -22.394531 20.609375 -23.03125 C 21.085938 -23.664062 21.378906 -24.273438 21.484375 -24.859375 L 21.796875 -24.859375 L 21.796875 -13.609375 L 21.484375 -13.609375 C 21.378906 -14.222656 21.085938 -14.835938 20.609375 -15.453125 C 20.140625 -16.078125 19.550781 -16.644531 18.84375 -17.15625 C 18.132812 -17.675781 17.375 -18.097656 16.5625 -18.421875 C 15.757812 -18.753906 14.96875 -18.921875 14.1875 -18.921875 L 12.953125 -18.921875 L 12.953125 -0.625 L 15 -0.625 C 16.25 -0.625 17.421875 -0.863281 18.515625 -1.34375 C 19.609375 -1.832031 20.597656 -2.460938 21.484375 -3.234375 C 22.367188 -4.003906 23.132812 -4.851562 23.78125 -5.78125 C 24.4375 -6.707031 24.9375 -7.613281 25.28125 -8.5 C 25.632812 -9.382812 25.8125 -10.175781 25.8125 -10.875 L 26.125 -10.875 Z M 26.125 0 "/></g></g></g><g fill="#231f20" fill-opacity="1"><g transform="translate(250.733967, 196.750238)"><g><path d="M 0.796875 -35.703125 L 0.796875 -36.015625 L 11.09375 -36.015625 L 26.0625 -10.328125 L 26.0625 -12.390625 C 26.0625 -13.941406 25.957031 -15.582031 25.75 -17.3125 C 25.539062 -19.039062 25.242188 -20.765625 24.859375 -22.484375 C 24.484375 -24.210938 24.039062 -25.851562 23.53125 -27.40625 C 23.03125 -28.957031 22.46875 -30.347656 21.84375 -31.578125 C 21.226562 -32.804688 20.582031 -33.785156 19.90625 -34.515625 C 19.226562 -35.242188 18.539062 -35.640625 17.84375 -35.703125 L 17.84375 -36.015625 L 28.75 -36.015625 L 28.75 -35.703125 C 28.007812 -35.515625 27.484375 -35.078125 27.171875 -34.390625 C 26.859375 -33.703125 26.703125 -32.769531 26.703125 -31.59375 L 26.703125 -4.421875 C 26.703125 -3.265625 26.859375 -2.335938 27.171875 -1.640625 C 27.484375 -0.941406 28.007812 -0.5 28.75 -0.3125 L 28.75 0 L 20 0 L 3.46875 -28.375 L 3.46875 -26.671875 C 3.46875 -24.960938 3.566406 -23.160156 3.765625 -21.265625 C 3.972656 -19.367188 4.265625 -17.472656 4.640625 -15.578125 C 5.023438 -13.679688 5.476562 -11.863281 6 -10.125 C 6.53125 -8.382812 7.109375 -6.804688 7.734375 -5.390625 C 8.367188 -3.984375 9.046875 -2.835938 9.765625 -1.953125 C 10.484375 -1.066406 11.226562 -0.519531 12 -0.3125 L 12 0 L 0.796875 0 L 0.796875 -0.3125 C 1.523438 -0.5 2.046875 -0.941406 2.359375 -1.640625 C 2.679688 -2.335938 2.84375 -3.265625 2.84375 -4.421875 L 2.84375 -31.59375 C 2.84375 -32.769531 2.679688 -33.703125 2.359375 -34.390625 C 2.046875 -35.078125 1.523438 -35.515625 0.796875 -35.703125 Z M 0.796875 -35.703125 "/></g></g></g><g fill="#231f20" fill-opacity="1"><g transform="translate(279.327011, 196.750238)"><g><path d="M 1.421875 -18.015625 C 1.421875 -20.921875 1.84375 -23.523438 2.6875 -25.828125 C 3.53125 -28.128906 4.679688 -30.082031 6.140625 -31.6875 C 7.609375 -33.289062 9.289062 -34.515625 11.1875 -35.359375 C 13.082031 -36.203125 15.09375 -36.625 17.21875 -36.625 C 18.082031 -36.625 18.816406 -36.585938 19.421875 -36.515625 C 20.035156 -36.453125 20.613281 -36.382812 21.15625 -36.3125 C 21.707031 -36.238281 22.296875 -36.171875 22.921875 -36.109375 C 23.546875 -36.046875 24.273438 -36.015625 25.109375 -36.015625 C 25.429688 -36.015625 25.773438 -36.0625 26.140625 -36.15625 C 26.515625 -36.25 26.785156 -36.40625 26.953125 -36.625 L 27.265625 -36.625 L 27.265625 -25.15625 L 26.953125 -25.15625 C 26.847656 -26.007812 26.640625 -26.925781 26.328125 -27.90625 C 26.023438 -28.882812 25.628906 -29.847656 25.140625 -30.796875 C 24.660156 -31.742188 24.085938 -32.609375 23.421875 -33.390625 C 22.765625 -34.171875 22.023438 -34.789062 21.203125 -35.25 C 20.378906 -35.71875 19.484375 -35.953125 18.515625 -35.953125 C 17.296875 -35.953125 16.265625 -35.453125 15.421875 -34.453125 C 14.578125 -33.453125 13.890625 -32.097656 13.359375 -30.390625 C 12.835938 -28.679688 12.453125 -26.757812 12.203125 -24.625 C 11.960938 -22.488281 11.84375 -20.273438 11.84375 -17.984375 C 11.84375 -16.171875 11.914062 -14.390625 12.0625 -12.640625 C 12.21875 -10.890625 12.457031 -9.25 12.78125 -7.71875 C 13.101562 -6.195312 13.523438 -4.851562 14.046875 -3.6875 C 14.578125 -2.53125 15.210938 -1.625 15.953125 -0.96875 C 16.691406 -0.320312 17.546875 0 18.515625 0 C 19.316406 0 20.0625 -0.25 20.75 -0.75 C 21.445312 -1.257812 22.082031 -1.9375 22.65625 -2.78125 C 23.238281 -3.625 23.757812 -4.550781 24.21875 -5.5625 C 24.6875 -6.570312 25.097656 -7.582031 25.453125 -8.59375 C 25.816406 -9.601562 26.117188 -10.539062 26.359375 -11.40625 C 26.609375 -12.269531 26.804688 -12.953125 26.953125 -13.453125 L 27.265625 -13.453125 L 27.265625 -1.984375 C 27.265625 -1.984375 27.070312 -1.851562 26.6875 -1.59375 C 26.3125 -1.332031 25.722656 -1.03125 24.921875 -0.6875 C 24.128906 -0.351562 23.09375 -0.0546875 21.8125 0.203125 C 20.539062 0.460938 19.007812 0.59375 17.21875 0.59375 C 15.09375 0.59375 13.082031 0.175781 11.1875 -0.65625 C 9.289062 -1.5 7.609375 -2.722656 6.140625 -4.328125 C 4.679688 -5.929688 3.53125 -7.882812 2.6875 -10.1875 C 1.84375 -12.5 1.421875 -15.109375 1.421875 -18.015625 Z M 1.421875 -18.015625 "/></g></g></g><g fill="#231f20" fill-opacity="1"><g transform="translate(307.066999, 196.750238)"><g><path d="M 26.125 0 L 0.796875 0 L 0.796875 -0.3125 C 1.523438 -0.5 2.046875 -0.941406 2.359375 -1.640625 C 2.679688 -2.335938 2.84375 -3.265625 2.84375 -4.421875 L 2.84375 -31.59375 C 2.84375 -32.769531 2.679688 -33.703125 2.359375 -34.390625 C 2.046875 -35.078125 1.523438 -35.515625 0.796875 -35.703125 L 0.796875 -36.015625 L 26.125 -36.015625 L 26.125 -25.15625 L 25.8125 -25.15625 C 25.8125 -25.84375 25.632812 -26.628906 25.28125 -27.515625 C 24.9375 -28.398438 24.4375 -29.304688 23.78125 -30.234375 C 23.132812 -31.160156 22.367188 -32.007812 21.484375 -32.78125 C 20.597656 -33.550781 19.609375 -34.175781 18.515625 -34.65625 C 17.421875 -35.144531 16.25 -35.390625 15 -35.390625 L 12.953125 -35.390625 L 12.953125 -19.5625 L 14.1875 -19.5625 C 14.96875 -19.5625 15.757812 -19.722656 16.5625 -20.046875 C 17.375 -20.367188 18.132812 -20.785156 18.84375 -21.296875 C 19.550781 -21.816406 20.140625 -22.394531 20.609375 -23.03125 C 21.085938 -23.664062 21.378906 -24.273438 21.484375 -24.859375 L 21.796875 -24.859375 L 21.796875 -13.609375 L 21.484375 -13.609375 C 21.378906 -14.222656 21.085938 -14.835938 20.609375 -15.453125 C 20.140625 -16.078125 19.550781 -16.644531 18.84375 -17.15625 C 18.132812 -17.675781 17.375 -18.097656 16.5625 -18.421875 C 15.757812 -18.753906 14.96875 -18.921875 14.1875 -18.921875 L 12.953125 -18.921875 L 12.953125 -0.625 L 15 -0.625 C 16.25 -0.625 17.421875 -0.863281 18.515625 -1.34375 C 19.609375 -1.832031 20.597656 -2.460938 21.484375 -3.234375 C 22.367188 -4.003906 23.132812 -4.851562 23.78125 -5.78125 C 24.4375 -6.707031 24.9375 -7.613281 25.28125 -8.5 C 25.632812 -9.382812 25.8125 -10.175781 25.8125 -10.875 L 26.125 -10.875 Z M 26.125 0 "/></g></g></g><g clip-path="url(#49cb52c9a9)"><path fill="#ffffff" d="M 0 215.5625 L 374.628906 215.5625 L 374.628906 222.074219 L 0 222.074219 Z M 0 215.5625 " fill-opacity="1" fill-rule="nonzero"/></g><g fill="#231f20" fill-opacity="1"><g transform="translate(102.547757, 207.718813)"><g><path d="M 0.328125 0 L 0.328125 -2.28125 L 0.59375 -2.28125 L 1.484375 -0.921875 L 2.375 -2.28125 L 2.640625 -2.28125 L 2.640625 0 L 2.359375 0 L 2.359375 -1.734375 L 1.609375 -0.609375 L 1.375 -0.609375 L 0.625 -1.734375 L 0.625 0 Z M 0.328125 0 "/></g></g></g><g fill="#231f20" fill-opacity="1"><g transform="translate(108.11619, 207.718813)"><g><path d="M 0.90625 0 L 0.90625 -0.8125 L 0.0625 -2.28125 L 0.390625 -2.28125 L 0.75 -1.640625 L 1.046875 -1.125 L 1.71875 -2.28125 L 2.046875 -2.28125 L 1.1875 -0.8125 L 1.1875 0 Z M 0.90625 0 "/></g></g></g><g fill="#231f20" fill-opacity="1"><g transform="translate(112.808469, 207.718813)"><g/></g></g><g fill="#231f20" fill-opacity="1"><g transform="translate(116.209232, 207.718813)"><g><path d="M 0.140625 0 L 0.140625 -0.265625 L 0.46875 -0.265625 C 0.644531 -0.265625 0.769531 -0.3125 0.84375 -0.40625 C 0.914062 -0.5 0.953125 -0.617188 0.953125 -0.765625 L 0.953125 -2.28125 L 1.234375 -2.28125 L 1.234375 -0.75 C 1.234375 -0.519531 1.171875 -0.335938 1.046875 -0.203125 C 0.921875 -0.0664062 0.726562 0 0.46875 0 Z M 0.140625 0 "/></g></g></g><g fill="#231f20" fill-opacity="1"><g transform="translate(120.362835, 207.718813)"><g><path d="M 1.359375 0.046875 C 1.128906 0.046875 0.925781 -0.00390625 0.75 -0.109375 C 0.570312 -0.210938 0.429688 -0.351562 0.328125 -0.53125 C 0.234375 -0.707031 0.1875 -0.910156 0.1875 -1.140625 C 0.1875 -1.367188 0.234375 -1.570312 0.328125 -1.75 C 0.429688 -1.925781 0.570312 -2.0625 0.75 -2.15625 C 0.925781 -2.257812 1.128906 -2.3125 1.359375 -2.3125 C 1.597656 -2.3125 1.804688 -2.257812 1.984375 -2.15625 C 2.160156 -2.0625 2.296875 -1.925781 2.390625 -1.75 C 2.492188 -1.570312 2.546875 -1.367188 2.546875 -1.140625 C 2.546875 -0.910156 2.492188 -0.707031 2.390625 -0.53125 C 2.296875 -0.351562 2.160156 -0.210938 1.984375 -0.109375 C 1.804688 -0.00390625 1.597656 0.046875 1.359375 0.046875 Z M 0.484375 -1.140625 C 0.484375 -0.960938 0.519531 -0.804688 0.59375 -0.671875 C 0.664062 -0.535156 0.769531 -0.429688 0.90625 -0.359375 C 1.039062 -0.285156 1.191406 -0.25 1.359375 -0.25 C 1.535156 -0.25 1.691406 -0.285156 1.828125 -0.359375 C 1.960938 -0.429688 2.066406 -0.535156 2.140625 -0.671875 C 2.210938 -0.804688 2.25 -0.960938 2.25 -1.140625 C 2.25 -1.316406 2.210938 -1.46875 2.140625 -1.59375 C 2.066406 -1.726562 1.960938 -1.832031 1.828125 -1.90625 C 1.691406 -1.988281 1.535156 -2.03125 1.359375 -2.03125 C 1.191406 -2.03125 1.039062 -1.988281 0.90625 -1.90625 C 0.769531 -1.832031 0.664062 -1.726562 0.59375 -1.59375 C 0.519531 -1.46875 0.484375 -1.316406 0.484375 -1.140625 Z M 0.484375 -1.140625 "/></g></g></g><g fill="#231f20" fill-opacity="1"><g transform="translate(125.684648, 207.718813)"><g><path d="M 0.328125 0 L 0.328125 -2.28125 L 1.640625 -2.28125 L 1.640625 -2.015625 L 0.625 -2.015625 L 0.625 -1.21875 L 1.546875 -1.21875 L 1.546875 -0.953125 L 0.625 -0.953125 L 0.625 0 Z M 0.328125 0 "/></g></g></g><g fill="#231f20" fill-opacity="1"><g transform="translate(130.091362, 207.718813)"><g><path d="M 1.1875 0.03125 C 0.90625 0.03125 0.6875 -0.0507812 0.53125 -0.21875 C 0.382812 -0.382812 0.3125 -0.617188 0.3125 -0.921875 L 0.3125 -2.28125 L 0.59375 -2.28125 L 0.59375 -0.953125 C 0.59375 -0.710938 0.640625 -0.53125 0.734375 -0.40625 C 0.835938 -0.289062 0.988281 -0.234375 1.1875 -0.234375 C 1.582031 -0.234375 1.78125 -0.472656 1.78125 -0.953125 L 1.78125 -2.28125 L 2.0625 -2.28125 L 2.0625 -0.921875 C 2.0625 -0.617188 1.984375 -0.382812 1.828125 -0.21875 C 1.671875 -0.0507812 1.457031 0.03125 1.1875 0.03125 Z M 1.1875 0.03125 "/></g></g></g><g fill="#231f20" fill-opacity="1"><g transform="translate(135.052976, 207.718813)"><g><path d="M 0.328125 0 L 0.328125 -2.28125 L 0.625 -2.28125 L 0.625 -0.265625 L 1.71875 -0.265625 L 1.71875 0 Z M 0.328125 0 "/></g></g></g><g fill="#231f20" fill-opacity="1"><g transform="translate(139.469426, 207.718813)"><g/></g></g><g fill="#231f20" fill-opacity="1"><g transform="translate(142.87019, 207.718813)"><g><path d="M 0.0625 0 L 0.984375 -2.28125 L 1.25 -2.28125 L 2.1875 0 L 1.890625 0 L 1.671875 -0.515625 L 0.5625 -0.515625 L 0.359375 0 Z M 0.671875 -0.78125 L 1.5625 -0.78125 L 1.125 -1.875 Z M 0.671875 -0.78125 "/></g></g></g><g fill="#231f20" fill-opacity="1"><g transform="translate(147.711741, 207.718813)"><g><path d="M 0.328125 0 L 0.328125 -2.28125 L 1.125 -2.28125 C 1.351562 -2.28125 1.550781 -2.226562 1.71875 -2.125 C 1.894531 -2.03125 2.03125 -1.894531 2.125 -1.71875 C 2.226562 -1.550781 2.28125 -1.359375 2.28125 -1.140625 C 2.28125 -0.910156 2.226562 -0.710938 2.125 -0.546875 C 2.03125 -0.378906 1.894531 -0.242188 1.71875 -0.140625 C 1.550781 -0.046875 1.351562 0 1.125 0 Z M 0.625 -0.265625 L 1.125 -0.265625 C 1.289062 -0.265625 1.4375 -0.300781 1.5625 -0.375 C 1.695312 -0.445312 1.800781 -0.546875 1.875 -0.671875 C 1.945312 -0.804688 1.984375 -0.960938 1.984375 -1.140625 C 1.984375 -1.304688 1.945312 -1.453125 1.875 -1.578125 C 1.800781 -1.710938 1.695312 -1.816406 1.5625 -1.890625 C 1.4375 -1.960938 1.285156 -2 1.109375 -2 L 0.625 -2 Z M 0.625 -0.265625 "/></g></g></g><g fill="#231f20" fill-opacity="1"><g transform="translate(152.777197, 207.718813)"><g><path d="M 0.96875 0 L 0.0625 -2.28125 L 0.359375 -2.28125 L 0.734375 -1.3125 L 1.09375 -0.40625 L 1.453125 -1.3125 L 1.828125 -2.28125 L 2.125 -2.28125 L 1.234375 0 Z M 0.96875 0 "/></g></g></g><g fill="#231f20" fill-opacity="1"><g transform="translate(157.557089, 207.718813)"><g><path d="M 0.328125 0 L 0.328125 -2.28125 L 1.71875 -2.28125 L 1.71875 -2.015625 L 0.625 -2.015625 L 0.625 -1.296875 L 1.625 -1.296875 L 1.625 -1.03125 L 0.625 -1.03125 L 0.625 -0.265625 L 1.75 -0.265625 L 1.75 0 Z M 0.328125 0 "/></g></g></g><g fill="#231f20" fill-opacity="1"><g transform="translate(162.109833, 207.718813)"><g><path d="M 0.328125 0 L 0.328125 -2.28125 L 0.59375 -2.28125 L 1.859375 -0.5 L 1.859375 -2.28125 L 2.140625 -2.28125 L 2.140625 0 L 1.875 0 L 0.609375 -1.78125 L 0.609375 0 Z M 0.328125 0 "/></g></g></g><g fill="#231f20" fill-opacity="1"><g transform="translate(167.172046, 207.718813)"><g><path d="M 0.875 0 L 0.875 -2 L 0.109375 -2 L 0.109375 -2.28125 L 1.9375 -2.28125 L 1.9375 -2 L 1.171875 -2 L 1.171875 0 Z M 0.875 0 "/></g></g></g><g fill="#231f20" fill-opacity="1"><g transform="translate(171.812407, 207.718813)"><g><path d="M 1.1875 0.03125 C 0.90625 0.03125 0.6875 -0.0507812 0.53125 -0.21875 C 0.382812 -0.382812 0.3125 -0.617188 0.3125 -0.921875 L 0.3125 -2.28125 L 0.59375 -2.28125 L 0.59375 -0.953125 C 0.59375 -0.710938 0.640625 -0.53125 0.734375 -0.40625 C 0.835938 -0.289062 0.988281 -0.234375 1.1875 -0.234375 C 1.582031 -0.234375 1.78125 -0.472656 1.78125 -0.953125 L 1.78125 -2.28125 L 2.0625 -2.28125 L 2.0625 -0.921875 C 2.0625 -0.617188 1.984375 -0.382812 1.828125 -0.21875 C 1.671875 -0.0507812 1.457031 0.03125 1.1875 0.03125 Z M 1.1875 0.03125 "/></g></g></g><g fill="#231f20" fill-opacity="1"><g transform="translate(176.774018, 207.718813)"><g><path d="M 0.328125 0 L 0.328125 -2.28125 L 1.203125 -2.28125 C 1.359375 -2.28125 1.492188 -2.25 1.609375 -2.1875 C 1.722656 -2.125 1.8125 -2.035156 1.875 -1.921875 C 1.945312 -1.816406 1.984375 -1.691406 1.984375 -1.546875 C 1.984375 -1.359375 1.9375 -1.203125 1.84375 -1.078125 C 1.75 -0.960938 1.617188 -0.882812 1.453125 -0.84375 L 2.015625 0 L 1.671875 0 L 1.125 -0.8125 L 0.625 -0.8125 L 0.625 0 Z M 0.625 -1.09375 L 1.171875 -1.09375 C 1.335938 -1.09375 1.460938 -1.128906 1.546875 -1.203125 C 1.640625 -1.285156 1.6875 -1.398438 1.6875 -1.546875 C 1.6875 -1.691406 1.640625 -1.800781 1.546875 -1.875 C 1.460938 -1.957031 1.335938 -2 1.171875 -2 L 0.625 -2 Z M 0.625 -1.09375 "/></g></g></g><g fill="#231f20" fill-opacity="1"><g transform="translate(181.579873, 207.718813)"><g><path d="M 0.328125 0 L 0.328125 -2.28125 L 1.71875 -2.28125 L 1.71875 -2.015625 L 0.625 -2.015625 L 0.625 -1.296875 L 1.625 -1.296875 L 1.625 -1.03125 L 0.625 -1.03125 L 0.625 -0.265625 L 1.75 -0.265625 L 1.75 0 Z M 0.328125 0 "/></g></g></g><g fill="#231f20" fill-opacity="1"><g transform="translate(186.132616, 207.718813)"><g/></g></g><g fill="#231f20" fill-opacity="1"><g transform="translate(189.533376, 207.718813)"><g><path d="M 1.359375 0.046875 C 1.128906 0.046875 0.925781 -0.00390625 0.75 -0.109375 C 0.570312 -0.210938 0.429688 -0.351562 0.328125 -0.53125 C 0.234375 -0.707031 0.1875 -0.910156 0.1875 -1.140625 C 0.1875 -1.367188 0.234375 -1.570312 0.328125 -1.75 C 0.429688 -1.925781 0.570312 -2.0625 0.75 -2.15625 C 0.925781 -2.257812 1.128906 -2.3125 1.359375 -2.3125 C 1.597656 -2.3125 1.804688 -2.257812 1.984375 -2.15625 C 2.160156 -2.0625 2.296875 -1.925781 2.390625 -1.75 C 2.492188 -1.570312 2.546875 -1.367188 2.546875 -1.140625 C 2.546875 -0.910156 2.492188 -0.707031 2.390625 -0.53125 C 2.296875 -0.351562 2.160156 -0.210938 1.984375 -0.109375 C 1.804688 -0.00390625 1.597656 0.046875 1.359375 0.046875 Z M 0.484375 -1.140625 C 0.484375 -0.960938 0.519531 -0.804688 0.59375 -0.671875 C 0.664062 -0.535156 0.769531 -0.429688 0.90625 -0.359375 C 1.039062 -0.285156 1.191406 -0.25 1.359375 -0.25 C 1.535156 -0.25 1.691406 -0.285156 1.828125 -0.359375 C 1.960938 -0.429688 2.066406 -0.535156 2.140625 -0.671875 C 2.210938 -0.804688 2.25 -0.960938 2.25 -1.140625 C 2.25 -1.316406 2.210938 -1.46875 2.140625 -1.59375 C 2.066406 -1.726562 1.960938 -1.832031 1.828125 -1.90625 C 1.691406 -1.988281 1.535156 -2.03125 1.359375 -2.03125 C 1.191406 -2.03125 1.039062 -1.988281 0.90625 -1.90625 C 0.769531 -1.832031 0.664062 -1.726562 0.59375 -1.59375 C 0.519531 -1.46875 0.484375 -1.316406 0.484375 -1.140625 Z M 0.484375 -1.140625 "/></g></g></g><g fill="#231f20" fill-opacity="1"><g transform="translate(194.85519, 207.718813)"><g><path d="M 0.328125 0 L 0.328125 -2.28125 L 1.640625 -2.28125 L 1.640625 -2.015625 L 0.625 -2.015625 L 0.625 -1.21875 L 1.546875 -1.21875 L 1.546875 -0.953125 L 0.625 -0.953125 L 0.625 0 Z M 0.328125 0 "/></g></g></g><g fill="#231f20" fill-opacity="1"><g transform="translate(199.261907, 207.718813)"><g/></g></g><g fill="#231f20" fill-opacity="1"><g transform="translate(202.662667, 207.718813)"><g><path d="M 0.796875 0 L 0.0625 -2.28125 L 0.359375 -2.28125 L 0.671875 -1.296875 L 0.9375 -0.453125 L 1.609375 -2.28125 L 1.890625 -2.28125 L 2.5625 -0.453125 L 3.140625 -2.28125 L 3.4375 -2.28125 L 2.703125 0 L 2.4375 0 L 2.125 -0.828125 L 1.75 -1.84375 L 1.0625 0 Z M 0.796875 0 "/></g></g></g><g fill="#231f20" fill-opacity="1"><g transform="translate(208.756795, 207.718813)"><g><path d="M 0.328125 0 L 0.328125 -2.28125 L 1.71875 -2.28125 L 1.71875 -2.015625 L 0.625 -2.015625 L 0.625 -1.296875 L 1.625 -1.296875 L 1.625 -1.03125 L 0.625 -1.03125 L 0.625 -0.265625 L 1.75 -0.265625 L 1.75 0 Z M 0.328125 0 "/></g></g></g><g fill="#231f20" fill-opacity="1"><g transform="translate(213.309539, 207.718813)"><g><path d="M 0.328125 0 L 0.328125 -2.28125 L 1.21875 -2.28125 C 1.4375 -2.28125 1.609375 -2.222656 1.734375 -2.109375 C 1.867188 -2.003906 1.9375 -1.859375 1.9375 -1.671875 C 1.9375 -1.554688 1.910156 -1.457031 1.859375 -1.375 C 1.804688 -1.289062 1.734375 -1.226562 1.640625 -1.1875 C 1.753906 -1.132812 1.84375 -1.0625 1.90625 -0.96875 C 1.96875 -0.875 2 -0.765625 2 -0.640625 C 2 -0.441406 1.929688 -0.285156 1.796875 -0.171875 C 1.660156 -0.0546875 1.476562 0 1.25 0 Z M 0.625 -0.265625 L 1.25 -0.265625 C 1.394531 -0.265625 1.503906 -0.296875 1.578125 -0.359375 C 1.660156 -0.429688 1.703125 -0.53125 1.703125 -0.65625 C 1.703125 -0.769531 1.660156 -0.859375 1.578125 -0.921875 C 1.503906 -0.992188 1.394531 -1.03125 1.25 -1.03125 L 0.625 -1.03125 Z M 0.625 -1.296875 L 1.203125 -1.296875 C 1.347656 -1.296875 1.457031 -1.328125 1.53125 -1.390625 C 1.601562 -1.453125 1.640625 -1.535156 1.640625 -1.640625 C 1.640625 -1.753906 1.597656 -1.84375 1.515625 -1.90625 C 1.441406 -1.976562 1.335938 -2.015625 1.203125 -2.015625 L 0.625 -2.015625 Z M 0.625 -1.296875 "/></g></g></g><g fill="#231f20" fill-opacity="1"><g transform="translate(218.082945, 207.718813)"><g/></g></g><g fill="#231f20" fill-opacity="1"><g transform="translate(221.483704, 207.718813)"><g><path d="M 0.328125 0 L 0.328125 -2.28125 L 1.125 -2.28125 C 1.351562 -2.28125 1.550781 -2.226562 1.71875 -2.125 C 1.894531 -2.03125 2.03125 -1.894531 2.125 -1.71875 C 2.226562 -1.550781 2.28125 -1.359375 2.28125 -1.140625 C 2.28125 -0.910156 2.226562 -0.710938 2.125 -0.546875 C 2.03125 -0.378906 1.894531 -0.242188 1.71875 -0.140625 C 1.550781 -0.046875 1.351562 0 1.125 0 Z M 0.625 -0.265625 L 1.125 -0.265625 C 1.289062 -0.265625 1.4375 -0.300781 1.5625 -0.375 C 1.695312 -0.445312 1.800781 -0.546875 1.875 -0.671875 C 1.945312 -0.804688 1.984375 -0.960938 1.984375 -1.140625 C 1.984375 -1.304688 1.945312 -1.453125 1.875 -1.578125 C 1.800781 -1.710938 1.695312 -1.816406 1.5625 -1.890625 C 1.4375 -1.960938 1.285156 -2 1.109375 -2 L 0.625 -2 Z M 0.625 -0.265625 "/></g></g></g><g fill="#231f20" fill-opacity="1"><g transform="translate(226.549156, 207.718813)"><g><path d="M 0.328125 0 L 0.328125 -2.28125 L 1.71875 -2.28125 L 1.71875 -2.015625 L 0.625 -2.015625 L 0.625 -1.296875 L 1.625 -1.296875 L 1.625 -1.03125 L 0.625 -1.03125 L 0.625 -0.265625 L 1.75 -0.265625 L 1.75 0 Z M 0.328125 0 "/></g></g></g><g fill="#231f20" fill-opacity="1"><g transform="translate(231.1019, 207.718813)"><g><path d="M 0.96875 0 L 0.0625 -2.28125 L 0.359375 -2.28125 L 0.734375 -1.3125 L 1.09375 -0.40625 L 1.453125 -1.3125 L 1.828125 -2.28125 L 2.125 -2.28125 L 1.234375 0 Z M 0.96875 0 "/></g></g></g><g fill="#231f20" fill-opacity="1"><g transform="translate(235.881793, 207.718813)"><g><path d="M 0.328125 0 L 0.328125 -2.28125 L 1.71875 -2.28125 L 1.71875 -2.015625 L 0.625 -2.015625 L 0.625 -1.296875 L 1.625 -1.296875 L 1.625 -1.03125 L 0.625 -1.03125 L 0.625 -0.265625 L 1.75 -0.265625 L 1.75 0 Z M 0.328125 0 "/></g></g></g><g fill="#231f20" fill-opacity="1"><g transform="translate(240.434537, 207.718813)"><g><path d="M 0.328125 0 L 0.328125 -2.28125 L 0.625 -2.28125 L 0.625 -0.265625 L 1.71875 -0.265625 L 1.71875 0 Z M 0.328125 0 "/></g></g></g><g fill="#231f20" fill-opacity="1"><g transform="translate(244.850983, 207.718813)"><g><path d="M 1.359375 0.046875 C 1.128906 0.046875 0.925781 -0.00390625 0.75 -0.109375 C 0.570312 -0.210938 0.429688 -0.351562 0.328125 -0.53125 C 0.234375 -0.707031 0.1875 -0.910156 0.1875 -1.140625 C 0.1875 -1.367188 0.234375 -1.570312 0.328125 -1.75 C 0.429688 -1.925781 0.570312 -2.0625 0.75 -2.15625 C 0.925781 -2.257812 1.128906 -2.3125 1.359375 -2.3125 C 1.597656 -2.3125 1.804688 -2.257812 1.984375 -2.15625 C 2.160156 -2.0625 2.296875 -1.925781 2.390625 -1.75 C 2.492188 -1.570312 2.546875 -1.367188 2.546875 -1.140625 C 2.546875 -0.910156 2.492188 -0.707031 2.390625 -0.53125 C 2.296875 -0.351562 2.160156 -0.210938 1.984375 -0.109375 C 1.804688 -0.00390625 1.597656 0.046875 1.359375 0.046875 Z M 0.484375 -1.140625 C 0.484375 -0.960938 0.519531 -0.804688 0.59375 -0.671875 C 0.664062 -0.535156 0.769531 -0.429688 0.90625 -0.359375 C 1.039062 -0.285156 1.191406 -0.25 1.359375 -0.25 C 1.535156 -0.25 1.691406 -0.285156 1.828125 -0.359375 C 1.960938 -0.429688 2.066406 -0.535156 2.140625 -0.671875 C 2.210938 -0.804688 2.25 -0.960938 2.25 -1.140625 C 2.25 -1.316406 2.210938 -1.46875 2.140625 -1.59375 C 2.066406 -1.726562 1.960938 -1.832031 1.828125 -1.90625 C 1.691406 -1.988281 1.535156 -2.03125 1.359375 -2.03125 C 1.191406 -2.03125 1.039062 -1.988281 0.90625 -1.90625 C 0.769531 -1.832031 0.664062 -1.726562 0.59375 -1.59375 C 0.519531 -1.46875 0.484375 -1.316406 0.484375 -1.140625 Z M 0.484375 -1.140625 "/></g></g></g><g fill="#231f20" fill-opacity="1"><g transform="translate(250.172789, 207.718813)"><g><path d="M 0.328125 0 L 0.328125 -2.28125 L 1.109375 -2.28125 C 1.273438 -2.28125 1.421875 -2.25 1.546875 -2.1875 C 1.671875 -2.125 1.769531 -2.035156 1.84375 -1.921875 C 1.914062 -1.804688 1.953125 -1.671875 1.953125 -1.515625 C 1.953125 -1.359375 1.914062 -1.222656 1.84375 -1.109375 C 1.769531 -0.992188 1.671875 -0.90625 1.546875 -0.84375 C 1.421875 -0.78125 1.273438 -0.75 1.109375 -0.75 L 0.625 -0.75 L 0.625 0 Z M 0.625 -1.015625 L 1.09375 -1.015625 C 1.46875 -1.015625 1.65625 -1.179688 1.65625 -1.515625 C 1.65625 -1.835938 1.46875 -2 1.09375 -2 L 0.625 -2 Z M 0.625 -1.015625 "/></g></g></g><g fill="#231f20" fill-opacity="1"><g transform="translate(254.842355, 207.718813)"><g><path d="M 0.328125 0 L 0.328125 -2.28125 L 0.59375 -2.28125 L 1.484375 -0.921875 L 2.375 -2.28125 L 2.640625 -2.28125 L 2.640625 0 L 2.359375 0 L 2.359375 -1.734375 L 1.609375 -0.609375 L 1.375 -0.609375 L 0.625 -1.734375 L 0.625 0 Z M 0.328125 0 "/></g></g></g><g fill="#231f20" fill-opacity="1"><g transform="translate(260.410793, 207.718813)"><g><path d="M 0.328125 0 L 0.328125 -2.28125 L 1.71875 -2.28125 L 1.71875 -2.015625 L 0.625 -2.015625 L 0.625 -1.296875 L 1.625 -1.296875 L 1.625 -1.03125 L 0.625 -1.03125 L 0.625 -0.265625 L 1.75 -0.265625 L 1.75 0 Z M 0.328125 0 "/></g></g></g><g fill="#231f20" fill-opacity="1"><g transform="translate(264.963537, 207.718813)"><g><path d="M 0.328125 0 L 0.328125 -2.28125 L 0.59375 -2.28125 L 1.859375 -0.5 L 1.859375 -2.28125 L 2.140625 -2.28125 L 2.140625 0 L 1.875 0 L 0.609375 -1.78125 L 0.609375 0 Z M 0.328125 0 "/></g></g></g><g fill="#231f20" fill-opacity="1"><g transform="translate(270.025754, 207.718813)"><g><path d="M 0.875 0 L 0.875 -2 L 0.109375 -2 L 0.109375 -2.28125 L 1.9375 -2.28125 L 1.9375 -2 L 1.171875 -2 L 1.171875 0 Z M 0.875 0 "/></g></g></g></svg>