<svg xmlns="http://www.w3.org/2000/svg" xmlns:xlink="http://www.w3.org/1999/xlink" width="500" zoomAndPan="magnify" viewBox="0 0 375 374.999991" height="500" preserveAspectRatio="xMidYMid meet" version="1.0"><defs><g/></defs><g fill="#ebe8e8" fill-opacity="1"><g transform="translate(6.672422, 221.552709)"><g><path d="M 18.53125 0 L 0.96875 0 L 0.96875 -0.390625 C 1.882812 -0.617188 2.535156 -1.160156 2.921875 -2.015625 C 3.316406 -2.878906 3.515625 -4.023438 3.515625 -5.453125 L 3.515625 -39 C 3.515625 -40.457031 3.316406 -41.609375 2.921875 -42.453125 C 2.535156 -43.296875 1.882812 -43.832031 0.96875 -44.0625 L 0.96875 -44.453125 L 23.796875 -44.453125 C 26.316406 -44.453125 28.582031 -43.878906 30.59375 -42.734375 C 32.613281 -41.597656 34.210938 -39.992188 35.390625 -37.921875 C 36.578125 -35.859375 37.171875 -33.445312 37.171875 -30.6875 C 37.171875 -27.488281 36.519531 -24.816406 35.21875 -22.671875 C 33.914062 -20.535156 32.117188 -18.925781 29.828125 -17.84375 C 27.546875 -16.757812 24.910156 -16.21875 21.921875 -16.21875 L 15.984375 -16.21875 L 15.984375 -5.453125 C 15.984375 -4.023438 16.175781 -2.878906 16.5625 -2.015625 C 16.957031 -1.160156 17.613281 -0.617188 18.53125 -0.390625 Z M 15.984375 -43.71875 L 15.984375 -17.203125 L 16.734375 -17.203125 C 18.242188 -17.203125 19.484375 -17.550781 20.453125 -18.25 C 21.429688 -18.957031 22.195312 -19.929688 22.75 -21.171875 C 23.3125 -22.421875 23.703125 -23.863281 23.921875 -25.5 C 24.148438 -27.144531 24.265625 -28.890625 24.265625 -30.734375 C 24.265625 -32.367188 24.144531 -33.945312 23.90625 -35.46875 C 23.675781 -36.988281 23.253906 -38.351562 22.640625 -39.5625 C 22.023438 -40.769531 21.1875 -41.742188 20.125 -42.484375 C 19.0625 -43.234375 17.679688 -43.644531 15.984375 -43.71875 Z M 15.984375 -43.71875 "/></g></g></g><g fill="#ebe8e8" fill-opacity="1"><g transform="translate(44.42445, 221.552709)"><g><path d="M 32.25 0 L 0.96875 0 L 0.96875 -0.390625 C 1.882812 -0.617188 2.535156 -1.160156 2.921875 -2.015625 C 3.316406 -2.878906 3.515625 -4.023438 3.515625 -5.453125 L 3.515625 -39 C 3.515625 -40.457031 3.316406 -41.609375 2.921875 -42.453125 C 2.535156 -43.296875 1.882812 -43.832031 0.96875 -44.0625 L 0.96875 -44.453125 L 32.25 -44.453125 L 32.25 -31.046875 L 31.859375 -31.046875 C 31.859375 -31.898438 31.644531 -32.875 31.21875 -33.96875 C 30.789062 -35.0625 30.171875 -36.175781 29.359375 -37.3125 C 28.554688 -38.457031 27.609375 -39.503906 26.515625 -40.453125 C 25.421875 -41.410156 24.195312 -42.1875 22.84375 -42.78125 C 21.5 -43.382812 20.0625 -43.6875 18.53125 -43.6875 L 15.984375 -43.6875 L 15.984375 -24.140625 L 17.515625 -24.140625 C 18.472656 -24.140625 19.453125 -24.335938 20.453125 -24.734375 C 21.453125 -25.140625 22.382812 -25.660156 23.25 -26.296875 C 24.125 -26.941406 24.851562 -27.648438 25.4375 -28.421875 C 26.03125 -29.203125 26.390625 -29.957031 26.515625 -30.6875 L 26.90625 -30.6875 L 26.90625 -16.8125 L 26.515625 -16.8125 C 26.390625 -17.5625 26.03125 -18.316406 25.4375 -19.078125 C 24.851562 -19.847656 24.125 -20.550781 23.25 -21.1875 C 22.382812 -21.832031 21.453125 -22.351562 20.453125 -22.75 C 19.453125 -23.15625 18.472656 -23.359375 17.515625 -23.359375 L 15.984375 -23.359375 L 15.984375 -0.78125 L 18.53125 -0.78125 C 20.0625 -0.78125 21.5 -1.078125 22.84375 -1.671875 C 24.195312 -2.273438 25.421875 -3.050781 26.515625 -4 C 27.609375 -4.945312 28.554688 -5.992188 29.359375 -7.140625 C 30.171875 -8.285156 30.789062 -9.398438 31.21875 -10.484375 C 31.644531 -11.578125 31.859375 -12.554688 31.859375 -13.421875 L 32.25 -13.421875 Z M 32.25 0 "/></g></g></g><g fill="#ebe8e8" fill-opacity="1"><g transform="translate(76.482481, 221.552709)"><g><path d="M 0.96875 -44.0625 L 0.96875 -44.453125 L 23.484375 -44.453125 C 26.128906 -44.453125 28.335938 -43.988281 30.109375 -43.0625 C 31.878906 -42.144531 33.203125 -40.921875 34.078125 -39.390625 C 34.960938 -37.859375 35.40625 -36.164062 35.40625 -34.3125 C 35.40625 -32.394531 35.046875 -30.796875 34.328125 -29.515625 C 33.617188 -28.242188 32.625 -27.242188 31.34375 -26.515625 C 30.070312 -25.785156 28.597656 -25.265625 26.921875 -24.953125 C 25.242188 -24.640625 23.429688 -24.484375 21.484375 -24.484375 C 23.722656 -24.023438 25.550781 -23.316406 26.96875 -22.359375 C 28.382812 -21.410156 29.519531 -20.304688 30.375 -19.046875 C 31.238281 -17.785156 31.910156 -16.445312 32.390625 -15.03125 C 32.867188 -13.613281 33.265625 -12.195312 33.578125 -10.78125 C 33.890625 -9.363281 34.21875 -8.035156 34.5625 -6.796875 C 34.914062 -5.566406 35.398438 -4.492188 36.015625 -3.578125 C 36.628906 -2.671875 37.46875 -2.023438 38.53125 -1.640625 C 38.53125 -1.640625 38.445312 -1.519531 38.28125 -1.28125 C 38.113281 -1.050781 37.8125 -0.773438 37.375 -0.453125 C 36.945312 -0.128906 36.34375 0.144531 35.5625 0.375 C 34.78125 0.613281 33.78125 0.734375 32.5625 0.734375 C 30.125 0.734375 28.128906 0.382812 26.578125 -0.3125 C 25.035156 -1.007812 23.835938 -1.945312 22.984375 -3.125 C 22.140625 -4.3125 21.535156 -5.640625 21.171875 -7.109375 C 20.804688 -8.585938 20.570312 -10.117188 20.46875 -11.703125 C 20.363281 -13.285156 20.285156 -14.8125 20.234375 -16.28125 C 20.179688 -17.75 20.050781 -19.070312 19.84375 -20.25 C 19.632812 -21.4375 19.238281 -22.378906 18.65625 -23.078125 C 18.070312 -23.785156 17.179688 -24.140625 15.984375 -24.140625 L 15.984375 -5.453125 C 15.984375 -4.023438 16.175781 -2.878906 16.5625 -2.015625 C 16.957031 -1.160156 17.613281 -0.617188 18.53125 -0.390625 L 18.53125 0 L 0.96875 0 L 0.96875 -0.390625 C 1.882812 -0.617188 2.535156 -1.160156 2.921875 -2.015625 C 3.316406 -2.878906 3.515625 -4.023438 3.515625 -5.453125 L 3.515625 -39 C 3.515625 -40.457031 3.316406 -41.609375 2.921875 -42.453125 C 2.535156 -43.296875 1.882812 -43.832031 0.96875 -44.0625 Z M 16.765625 -43.953125 L 15.984375 -43.953125 L 15.984375 -24.921875 L 17.390625 -24.921875 C 18.378906 -24.921875 19.296875 -25.21875 20.140625 -25.8125 C 20.984375 -26.414062 21.660156 -27.429688 22.171875 -28.859375 C 22.679688 -30.285156 22.9375 -32.25 22.9375 -34.75 C 22.9375 -36.332031 22.753906 -37.828125 22.390625 -39.234375 C 22.023438 -40.640625 21.398438 -41.773438 20.515625 -42.640625 C 19.628906 -43.515625 18.378906 -43.953125 16.765625 -43.953125 Z M 16.765625 -43.953125 "/></g></g></g><g fill="#ebe8e8" fill-opacity="1"><g transform="translate(114.234507, 221.552709)"><g><path d="M 23.015625 -5.609375 C 23.015625 -7.328125 22.710938 -8.8125 22.109375 -10.0625 C 21.515625 -11.3125 20.707031 -12.398438 19.6875 -13.328125 C 18.675781 -14.265625 17.539062 -15.117188 16.28125 -15.890625 C 15.019531 -16.660156 13.71875 -17.414062 12.375 -18.15625 C 11.039062 -18.894531 9.742188 -19.6875 8.484375 -20.53125 C 7.222656 -21.375 6.082031 -22.351562 5.0625 -23.46875 C 4.050781 -24.59375 3.242188 -25.914062 2.640625 -27.4375 C 2.046875 -28.957031 1.75 -30.757812 1.75 -32.84375 C 1.75 -35.675781 2.398438 -38 3.703125 -39.8125 C 5.003906 -41.632812 6.769531 -42.988281 9 -43.875 C 11.238281 -44.757812 13.75 -45.203125 16.53125 -45.203125 C 17.9375 -45.203125 19.210938 -45.140625 20.359375 -45.015625 C 21.503906 -44.898438 22.644531 -44.773438 23.78125 -44.640625 C 24.925781 -44.515625 26.203125 -44.453125 27.609375 -44.453125 C 28.003906 -44.453125 28.425781 -44.507812 28.875 -44.625 C 29.332031 -44.75 29.664062 -44.941406 29.875 -45.203125 L 30.265625 -45.203125 L 30.265625 -31.046875 L 29.875 -31.046875 C 29.738281 -32.109375 29.382812 -33.25 28.8125 -34.46875 C 28.25 -35.695312 27.515625 -36.894531 26.609375 -38.0625 C 25.710938 -39.226562 24.707031 -40.300781 23.59375 -41.28125 C 22.476562 -42.257812 21.316406 -43.03125 20.109375 -43.59375 C 18.898438 -44.164062 17.695312 -44.453125 16.5 -44.453125 C 15.019531 -44.453125 13.765625 -43.988281 12.734375 -43.0625 C 11.703125 -42.144531 11.1875 -40.84375 11.1875 -39.15625 C 11.1875 -37.519531 11.484375 -36.101562 12.078125 -34.90625 C 12.679688 -33.707031 13.492188 -32.660156 14.515625 -31.765625 C 15.546875 -30.867188 16.691406 -30.050781 17.953125 -29.3125 C 19.210938 -28.570312 20.523438 -27.84375 21.890625 -27.125 C 23.265625 -26.40625 24.582031 -25.625 25.84375 -24.78125 C 27.101562 -23.9375 28.242188 -22.972656 29.265625 -21.890625 C 30.296875 -20.816406 31.109375 -19.535156 31.703125 -18.046875 C 32.304688 -16.566406 32.609375 -14.828125 32.609375 -12.828125 C 32.609375 -10.898438 32.226562 -9.109375 31.46875 -7.453125 C 30.71875 -5.804688 29.660156 -4.375 28.296875 -3.15625 C 26.929688 -1.9375 25.320312 -0.984375 23.46875 -0.296875 C 21.625 0.390625 19.613281 0.734375 17.4375 0.734375 C 15.300781 0.734375 13.367188 0.570312 11.640625 0.25 C 9.910156 -0.0703125 8.285156 -0.578125 6.765625 -1.265625 C 5.242188 -1.953125 3.726562 -2.84375 2.21875 -3.9375 L 2.21875 -18.6875 L 2.6875 -18.6875 C 2.6875 -18.132812 2.863281 -17.300781 3.21875 -16.1875 C 3.570312 -15.070312 4.070312 -13.8125 4.71875 -12.40625 C 5.363281 -11 6.132812 -9.578125 7.03125 -8.140625 C 7.9375 -6.710938 8.929688 -5.390625 10.015625 -4.171875 C 11.109375 -2.953125 12.269531 -1.960938 13.5 -1.203125 C 14.738281 -0.453125 16.023438 -0.078125 17.359375 -0.078125 C 18.804688 -0.078125 19.941406 -0.320312 20.765625 -0.8125 C 21.585938 -1.3125 22.164062 -1.976562 22.5 -2.8125 C 22.84375 -3.644531 23.015625 -4.578125 23.015625 -5.609375 Z M 23.015625 -5.609375 "/></g></g></g><g fill="#ebe8e8" fill-opacity="1"><g transform="translate(147.423538, 221.552709)"><g><path d="M 0.96875 0 L 0.96875 -0.390625 C 1.882812 -0.617188 2.535156 -1.160156 2.921875 -2.015625 C 3.316406 -2.878906 3.515625 -4.023438 3.515625 -5.453125 L 3.515625 -39 C 3.515625 -40.457031 3.316406 -41.609375 2.921875 -42.453125 C 2.535156 -43.296875 1.882812 -43.832031 0.96875 -44.0625 L 0.96875 -44.453125 L 18.53125 -44.453125 L 18.53125 -44.0625 C 17.613281 -43.832031 16.957031 -43.296875 16.5625 -42.453125 C 16.175781 -41.609375 15.984375 -40.457031 15.984375 -39 L 15.984375 -5.453125 C 15.984375 -4.023438 16.175781 -2.878906 16.5625 -2.015625 C 16.957031 -1.160156 17.613281 -0.617188 18.53125 -0.390625 L 18.53125 0 Z M 0.96875 0 "/></g></g></g><g fill="#ebe8e8" fill-opacity="1"><g transform="translate(165.753562, 221.552709)"><g><path d="M 23.015625 -5.609375 C 23.015625 -7.328125 22.710938 -8.8125 22.109375 -10.0625 C 21.515625 -11.3125 20.707031 -12.398438 19.6875 -13.328125 C 18.675781 -14.265625 17.539062 -15.117188 16.28125 -15.890625 C 15.019531 -16.660156 13.71875 -17.414062 12.375 -18.15625 C 11.039062 -18.894531 9.742188 -19.6875 8.484375 -20.53125 C 7.222656 -21.375 6.082031 -22.351562 5.0625 -23.46875 C 4.050781 -24.59375 3.242188 -25.914062 2.640625 -27.4375 C 2.046875 -28.957031 1.75 -30.757812 1.75 -32.84375 C 1.75 -35.675781 2.398438 -38 3.703125 -39.8125 C 5.003906 -41.632812 6.769531 -42.988281 9 -43.875 C 11.238281 -44.757812 13.75 -45.203125 16.53125 -45.203125 C 17.9375 -45.203125 19.210938 -45.140625 20.359375 -45.015625 C 21.503906 -44.898438 22.644531 -44.773438 23.78125 -44.640625 C 24.925781 -44.515625 26.203125 -44.453125 27.609375 -44.453125 C 28.003906 -44.453125 28.425781 -44.507812 28.875 -44.625 C 29.332031 -44.75 29.664062 -44.941406 29.875 -45.203125 L 30.265625 -45.203125 L 30.265625 -31.046875 L 29.875 -31.046875 C 29.738281 -32.109375 29.382812 -33.25 28.8125 -34.46875 C 28.25 -35.695312 27.515625 -36.894531 26.609375 -38.0625 C 25.710938 -39.226562 24.707031 -40.300781 23.59375 -41.28125 C 22.476562 -42.257812 21.316406 -43.03125 20.109375 -43.59375 C 18.898438 -44.164062 17.695312 -44.453125 16.5 -44.453125 C 15.019531 -44.453125 13.765625 -43.988281 12.734375 -43.0625 C 11.703125 -42.144531 11.1875 -40.84375 11.1875 -39.15625 C 11.1875 -37.519531 11.484375 -36.101562 12.078125 -34.90625 C 12.679688 -33.707031 13.492188 -32.660156 14.515625 -31.765625 C 15.546875 -30.867188 16.691406 -30.050781 17.953125 -29.3125 C 19.210938 -28.570312 20.523438 -27.84375 21.890625 -27.125 C 23.265625 -26.40625 24.582031 -25.625 25.84375 -24.78125 C 27.101562 -23.9375 28.242188 -22.972656 29.265625 -21.890625 C 30.296875 -20.816406 31.109375 -19.535156 31.703125 -18.046875 C 32.304688 -16.566406 32.609375 -14.828125 32.609375 -12.828125 C 32.609375 -10.898438 32.226562 -9.109375 31.46875 -7.453125 C 30.71875 -5.804688 29.660156 -4.375 28.296875 -3.15625 C 26.929688 -1.9375 25.320312 -0.984375 23.46875 -0.296875 C 21.625 0.390625 19.613281 0.734375 17.4375 0.734375 C 15.300781 0.734375 13.367188 0.570312 11.640625 0.25 C 9.910156 -0.0703125 8.285156 -0.578125 6.765625 -1.265625 C 5.242188 -1.953125 3.726562 -2.84375 2.21875 -3.9375 L 2.21875 -18.6875 L 2.6875 -18.6875 C 2.6875 -18.132812 2.863281 -17.300781 3.21875 -16.1875 C 3.570312 -15.070312 4.070312 -13.8125 4.71875 -12.40625 C 5.363281 -11 6.132812 -9.578125 7.03125 -8.140625 C 7.9375 -6.710938 8.929688 -5.390625 10.015625 -4.171875 C 11.109375 -2.953125 12.269531 -1.960938 13.5 -1.203125 C 14.738281 -0.453125 16.023438 -0.078125 17.359375 -0.078125 C 18.804688 -0.078125 19.941406 -0.320312 20.765625 -0.8125 C 21.585938 -1.3125 22.164062 -1.976562 22.5 -2.8125 C 22.84375 -3.644531 23.015625 -4.578125 23.015625 -5.609375 Z M 23.015625 -5.609375 "/></g></g></g><g fill="#ebe8e8" fill-opacity="1"><g transform="translate(198.942581, 221.552709)"><g><path d="M 0.96875 -29.4375 L 0.96875 -44.453125 L 34.75 -44.453125 L 34.75 -29.4375 L 34.359375 -29.4375 C 34.359375 -30.5625 34.179688 -31.765625 33.828125 -33.046875 C 33.484375 -34.335938 32.988281 -35.613281 32.34375 -36.875 C 31.707031 -38.132812 30.96875 -39.273438 30.125 -40.296875 C 29.28125 -41.328125 28.363281 -42.148438 27.375 -42.765625 C 26.382812 -43.378906 25.359375 -43.6875 24.296875 -43.6875 L 23.90625 -43.6875 L 23.90625 -5.453125 C 23.90625 -4.023438 24.097656 -2.878906 24.484375 -2.015625 C 24.878906 -1.160156 25.53125 -0.617188 26.4375 -0.390625 L 26.4375 0 L 8.890625 0 L 8.890625 -0.390625 C 9.796875 -0.617188 10.441406 -1.160156 10.828125 -2.015625 C 11.222656 -2.878906 11.421875 -4.023438 11.421875 -5.453125 L 11.421875 -43.6875 C 10.378906 -43.6875 9.359375 -43.378906 8.359375 -42.765625 C 7.359375 -42.148438 6.4375 -41.328125 5.59375 -40.296875 C 4.75 -39.273438 4.007812 -38.132812 3.375 -36.875 C 2.738281 -35.613281 2.242188 -34.335938 1.890625 -33.046875 C 1.535156 -31.765625 1.359375 -30.5625 1.359375 -29.4375 Z M 0.96875 -29.4375 "/></g></g></g><g fill="#ebe8e8" fill-opacity="1"><g transform="translate(233.496618, 221.552709)"><g><path d="M 32.25 0 L 0.96875 0 L 0.96875 -0.390625 C 1.882812 -0.617188 2.535156 -1.160156 2.921875 -2.015625 C 3.316406 -2.878906 3.515625 -4.023438 3.515625 -5.453125 L 3.515625 -39 C 3.515625 -40.457031 3.316406 -41.609375 2.921875 -42.453125 C 2.535156 -43.296875 1.882812 -43.832031 0.96875 -44.0625 L 0.96875 -44.453125 L 32.25 -44.453125 L 32.25 -31.046875 L 31.859375 -31.046875 C 31.859375 -31.898438 31.644531 -32.875 31.21875 -33.96875 C 30.789062 -35.0625 30.171875 -36.175781 29.359375 -37.3125 C 28.554688 -38.457031 27.609375 -39.503906 26.515625 -40.453125 C 25.421875 -41.410156 24.195312 -42.1875 22.84375 -42.78125 C 21.5 -43.382812 20.0625 -43.6875 18.53125 -43.6875 L 15.984375 -43.6875 L 15.984375 -24.140625 L 17.515625 -24.140625 C 18.472656 -24.140625 19.453125 -24.335938 20.453125 -24.734375 C 21.453125 -25.140625 22.382812 -25.660156 23.25 -26.296875 C 24.125 -26.941406 24.851562 -27.648438 25.4375 -28.421875 C 26.03125 -29.203125 26.390625 -29.957031 26.515625 -30.6875 L 26.90625 -30.6875 L 26.90625 -16.8125 L 26.515625 -16.8125 C 26.390625 -17.5625 26.03125 -18.316406 25.4375 -19.078125 C 24.851562 -19.847656 24.125 -20.550781 23.25 -21.1875 C 22.382812 -21.832031 21.453125 -22.351562 20.453125 -22.75 C 19.453125 -23.15625 18.472656 -23.359375 17.515625 -23.359375 L 15.984375 -23.359375 L 15.984375 -0.78125 L 18.53125 -0.78125 C 20.0625 -0.78125 21.5 -1.078125 22.84375 -1.671875 C 24.195312 -2.273438 25.421875 -3.050781 26.515625 -4 C 27.609375 -4.945312 28.554688 -5.992188 29.359375 -7.140625 C 30.171875 -8.285156 30.789062 -9.398438 31.21875 -10.484375 C 31.644531 -11.578125 31.859375 -12.554688 31.859375 -13.421875 L 32.25 -13.421875 Z M 32.25 0 "/></g></g></g><g fill="#ebe8e8" fill-opacity="1"><g transform="translate(265.554653, 221.552709)"><g><path d="M 0.96875 -44.0625 L 0.96875 -44.453125 L 13.6875 -44.453125 L 32.171875 -12.75 L 32.171875 -15.28125 C 32.171875 -17.207031 32.039062 -19.234375 31.78125 -21.359375 C 31.519531 -23.492188 31.15625 -25.628906 30.6875 -27.765625 C 30.21875 -29.898438 29.671875 -31.921875 29.046875 -33.828125 C 28.429688 -35.742188 27.738281 -37.460938 26.96875 -38.984375 C 26.195312 -40.503906 25.394531 -41.710938 24.5625 -42.609375 C 23.738281 -43.503906 22.894531 -43.988281 22.03125 -44.0625 L 22.03125 -44.453125 L 35.484375 -44.453125 L 35.484375 -44.0625 C 34.578125 -43.832031 33.925781 -43.296875 33.53125 -42.453125 C 33.144531 -41.609375 32.953125 -40.457031 32.953125 -39 L 32.953125 -5.453125 C 32.953125 -4.023438 33.144531 -2.878906 33.53125 -2.015625 C 33.925781 -1.160156 34.578125 -0.617188 35.484375 -0.390625 L 35.484375 0 L 24.6875 0 L 4.296875 -35.015625 L 4.296875 -32.921875 C 4.296875 -30.804688 4.414062 -28.578125 4.65625 -26.234375 C 4.90625 -23.898438 5.265625 -21.5625 5.734375 -19.21875 C 6.203125 -16.882812 6.757812 -14.644531 7.40625 -12.5 C 8.0625 -10.351562 8.773438 -8.410156 9.546875 -6.671875 C 10.328125 -4.929688 11.160156 -3.515625 12.046875 -2.421875 C 12.929688 -1.328125 13.851562 -0.648438 14.8125 -0.390625 L 14.8125 0 L 0.96875 0 L 0.96875 -0.390625 C 1.882812 -0.617188 2.535156 -1.160156 2.921875 -2.015625 C 3.316406 -2.878906 3.515625 -4.023438 3.515625 -5.453125 L 3.515625 -39 C 3.515625 -40.457031 3.316406 -41.609375 2.921875 -42.453125 C 2.535156 -43.296875 1.882812 -43.832031 0.96875 -44.0625 Z M 0.96875 -44.0625 "/></g></g></g><g fill="#ebe8e8" fill-opacity="1"><g transform="translate(300.849671, 221.552709)"><g><path d="M 1.75 -22.234375 C 1.75 -25.816406 2.269531 -29.03125 3.3125 -31.875 C 4.351562 -34.726562 5.773438 -37.140625 7.578125 -39.109375 C 9.390625 -41.085938 11.460938 -42.597656 13.796875 -43.640625 C 16.140625 -44.679688 18.625 -45.203125 21.25 -45.203125 C 22.320312 -45.203125 23.234375 -45.160156 23.984375 -45.078125 C 24.734375 -45.003906 25.445312 -44.921875 26.125 -44.828125 C 26.800781 -44.734375 27.519531 -44.644531 28.28125 -44.5625 C 29.050781 -44.488281 29.957031 -44.453125 31 -44.453125 C 31.394531 -44.453125 31.816406 -44.507812 32.265625 -44.625 C 32.722656 -44.75 33.054688 -44.941406 33.265625 -45.203125 L 33.65625 -45.203125 L 33.65625 -31.046875 L 33.265625 -31.046875 C 33.140625 -32.109375 32.882812 -33.242188 32.5 -34.453125 C 32.125 -35.660156 31.632812 -36.847656 31.03125 -38.015625 C 30.4375 -39.191406 29.726562 -40.257812 28.90625 -41.21875 C 28.09375 -42.1875 27.175781 -42.953125 26.15625 -43.515625 C 25.144531 -44.085938 24.046875 -44.375 22.859375 -44.375 C 21.347656 -44.375 20.070312 -43.753906 19.03125 -42.515625 C 17.988281 -41.285156 17.140625 -39.617188 16.484375 -37.515625 C 15.835938 -35.410156 15.363281 -33.035156 15.0625 -30.390625 C 14.769531 -27.753906 14.625 -25.019531 14.625 -22.1875 C 14.625 -19.957031 14.710938 -17.757812 14.890625 -15.59375 C 15.078125 -13.4375 15.367188 -11.414062 15.765625 -9.53125 C 16.171875 -7.644531 16.695312 -5.988281 17.34375 -4.5625 C 18 -3.132812 18.78125 -2.015625 19.6875 -1.203125 C 20.601562 -0.398438 21.660156 0 22.859375 0 C 23.847656 0 24.769531 -0.3125 25.625 -0.9375 C 26.476562 -1.5625 27.265625 -2.390625 27.984375 -3.421875 C 28.703125 -4.460938 29.34375 -5.609375 29.90625 -6.859375 C 30.476562 -8.109375 30.984375 -9.359375 31.421875 -10.609375 C 31.867188 -11.859375 32.242188 -13.015625 32.546875 -14.078125 C 32.847656 -15.140625 33.085938 -15.984375 33.265625 -16.609375 L 33.65625 -16.609375 L 33.65625 -2.453125 C 33.65625 -2.453125 33.421875 -2.289062 32.953125 -1.96875 C 32.484375 -1.644531 31.753906 -1.273438 30.765625 -0.859375 C 29.773438 -0.441406 28.492188 -0.0703125 26.921875 0.25 C 25.347656 0.570312 23.457031 0.734375 21.25 0.734375 C 18.625 0.734375 16.140625 0.21875 13.796875 -0.8125 C 11.460938 -1.851562 9.390625 -3.363281 7.578125 -5.34375 C 5.773438 -7.320312 4.351562 -9.734375 3.3125 -12.578125 C 2.269531 -15.421875 1.75 -18.640625 1.75 -22.234375 Z M 1.75 -22.234375 "/></g></g></g><g fill="#ebe8e8" fill-opacity="1"><g transform="translate(335.091696, 221.552709)"><g><path d="M 32.25 0 L 0.96875 0 L 0.96875 -0.390625 C 1.882812 -0.617188 2.535156 -1.160156 2.921875 -2.015625 C 3.316406 -2.878906 3.515625 -4.023438 3.515625 -5.453125 L 3.515625 -39 C 3.515625 -40.457031 3.316406 -41.609375 2.921875 -42.453125 C 2.535156 -43.296875 1.882812 -43.832031 0.96875 -44.0625 L 0.96875 -44.453125 L 32.25 -44.453125 L 32.25 -31.046875 L 31.859375 -31.046875 C 31.859375 -31.898438 31.644531 -32.875 31.21875 -33.96875 C 30.789062 -35.0625 30.171875 -36.175781 29.359375 -37.3125 C 28.554688 -38.457031 27.609375 -39.503906 26.515625 -40.453125 C 25.421875 -41.410156 24.195312 -42.1875 22.84375 -42.78125 C 21.5 -43.382812 20.0625 -43.6875 18.53125 -43.6875 L 15.984375 -43.6875 L 15.984375 -24.140625 L 17.515625 -24.140625 C 18.472656 -24.140625 19.453125 -24.335938 20.453125 -24.734375 C 21.453125 -25.140625 22.382812 -25.660156 23.25 -26.296875 C 24.125 -26.941406 24.851562 -27.648438 25.4375 -28.421875 C 26.03125 -29.203125 26.390625 -29.957031 26.515625 -30.6875 L 26.90625 -30.6875 L 26.90625 -16.8125 L 26.515625 -16.8125 C 26.390625 -17.5625 26.03125 -18.316406 25.4375 -19.078125 C 24.851562 -19.847656 24.125 -20.550781 23.25 -21.1875 C 22.382812 -21.832031 21.453125 -22.351562 20.453125 -22.75 C 19.453125 -23.15625 18.472656 -23.359375 17.515625 -23.359375 L 15.984375 -23.359375 L 15.984375 -0.78125 L 18.53125 -0.78125 C 20.0625 -0.78125 21.5 -1.078125 22.84375 -1.671875 C 24.195312 -2.273438 25.421875 -3.050781 26.515625 -4 C 27.609375 -4.945312 28.554688 -5.992188 29.359375 -7.140625 C 30.171875 -8.285156 30.789062 -9.398438 31.21875 -10.484375 C 31.644531 -11.578125 31.859375 -12.554688 31.859375 -13.421875 L 32.25 -13.421875 Z M 32.25 0 "/></g></g></g><g fill="#ebe8e8" fill-opacity="1"><g transform="translate(20.252001, 234.279081)"><g><path d="M 0.28125 0 L 0.28125 -0.53125 L 0.890625 -0.53125 C 1.242188 -0.53125 1.488281 -0.613281 1.625 -0.78125 C 1.757812 -0.945312 1.828125 -1.175781 1.828125 -1.46875 L 1.828125 -4.359375 L 2.375 -4.359375 L 2.375 -1.4375 C 2.375 -1.007812 2.253906 -0.660156 2.015625 -0.390625 C 1.773438 -0.128906 1.398438 0 0.890625 0 Z M 0.28125 0 "/></g></g></g><g fill="#ebe8e8" fill-opacity="1"><g transform="translate(28.228064, 234.279081)"><g><path d="M 2.625 0.078125 C 2.175781 0.078125 1.78125 -0.015625 1.4375 -0.203125 C 1.101562 -0.398438 0.835938 -0.664062 0.640625 -1 C 0.453125 -1.34375 0.359375 -1.738281 0.359375 -2.1875 C 0.359375 -2.625 0.453125 -3.007812 0.640625 -3.34375 C 0.835938 -3.6875 1.101562 -3.953125 1.4375 -4.140625 C 1.78125 -4.335938 2.175781 -4.4375 2.625 -4.4375 C 3.0625 -4.4375 3.445312 -4.335938 3.78125 -4.140625 C 4.125 -3.953125 4.390625 -3.6875 4.578125 -3.34375 C 4.773438 -3.007812 4.875 -2.625 4.875 -2.1875 C 4.875 -1.738281 4.773438 -1.34375 4.578125 -1 C 4.390625 -0.664062 4.125 -0.398438 3.78125 -0.203125 C 3.445312 -0.015625 3.0625 0.078125 2.625 0.078125 Z M 0.921875 -2.1875 C 0.921875 -1.84375 0.992188 -1.539062 1.140625 -1.28125 C 1.285156 -1.03125 1.484375 -0.832031 1.734375 -0.6875 C 1.992188 -0.539062 2.289062 -0.46875 2.625 -0.46875 C 2.957031 -0.46875 3.25 -0.539062 3.5 -0.6875 C 3.757812 -0.832031 3.957031 -1.03125 4.09375 -1.28125 C 4.238281 -1.539062 4.3125 -1.84375 4.3125 -2.1875 C 4.3125 -2.519531 4.238281 -2.8125 4.09375 -3.0625 C 3.957031 -3.320312 3.757812 -3.523438 3.5 -3.671875 C 3.25 -3.816406 2.957031 -3.890625 2.625 -3.890625 C 2.289062 -3.890625 1.992188 -3.816406 1.734375 -3.671875 C 1.484375 -3.523438 1.285156 -3.320312 1.140625 -3.0625 C 0.992188 -2.8125 0.921875 -2.519531 0.921875 -2.1875 Z M 0.921875 -2.1875 "/></g></g></g><g fill="#ebe8e8" fill-opacity="1"><g transform="translate(38.444309, 234.279081)"><g><path d="M 1.75 0 L 1.75 -1.578125 L 0.109375 -4.359375 L 0.734375 -4.359375 L 1.453125 -3.140625 L 2.015625 -2.15625 L 3.296875 -4.359375 L 3.921875 -4.359375 L 2.28125 -1.578125 L 2.28125 0 Z M 1.75 0 "/></g></g></g><g fill="#ebe8e8" fill-opacity="1"><g transform="translate(47.453352, 234.279081)"><g><path d="M 0.640625 0 L 0.640625 -4.359375 L 3.140625 -4.359375 L 3.140625 -3.859375 L 1.1875 -3.859375 L 1.1875 -2.34375 L 2.96875 -2.34375 L 2.96875 -1.84375 L 1.1875 -1.84375 L 1.1875 0 Z M 0.640625 0 "/></g></g></g><g fill="#ebe8e8" fill-opacity="1"><g transform="translate(55.914793, 234.279081)"><g><path d="M 2.265625 0.078125 C 1.742188 0.078125 1.332031 -0.0820312 1.03125 -0.40625 C 0.738281 -0.738281 0.59375 -1.195312 0.59375 -1.78125 L 0.59375 -4.359375 L 1.125 -4.359375 L 1.125 -1.8125 C 1.125 -1.363281 1.222656 -1.023438 1.421875 -0.796875 C 1.617188 -0.578125 1.898438 -0.46875 2.265625 -0.46875 C 3.023438 -0.46875 3.40625 -0.914062 3.40625 -1.8125 L 3.40625 -4.359375 L 3.953125 -4.359375 L 3.953125 -1.78125 C 3.953125 -1.195312 3.800781 -0.738281 3.5 -0.40625 C 3.207031 -0.0820312 2.796875 0.078125 2.265625 0.078125 Z M 2.265625 0.078125 "/></g></g></g><g fill="#ebe8e8" fill-opacity="1"><g transform="translate(65.440316, 234.279081)"><g><path d="M 0.640625 0 L 0.640625 -4.359375 L 1.1875 -4.359375 L 1.1875 -0.53125 L 3.296875 -0.53125 L 3.296875 0 Z M 0.640625 0 "/></g></g></g><g fill="#ebe8e8" fill-opacity="1"><g transform="translate(73.920422, 234.279081)"><g/></g></g><g fill="#ebe8e8" fill-opacity="1"><g transform="translate(80.452812, 234.279081)"><g><path d="M 0.109375 0 L 1.90625 -4.359375 L 2.40625 -4.359375 L 4.203125 0 L 3.625 0 L 3.21875 -0.984375 L 1.09375 -0.984375 L 0.6875 0 Z M 1.296875 -1.5 L 3.015625 -1.5 L 2.15625 -3.59375 Z M 1.296875 -1.5 "/></g></g></g><g fill="#ebe8e8" fill-opacity="1"><g transform="translate(89.748092, 234.279081)"><g><path d="M 0.640625 0 L 0.640625 -4.359375 L 2.140625 -4.359375 C 2.585938 -4.359375 2.976562 -4.265625 3.3125 -4.078125 C 3.65625 -3.898438 3.914062 -3.644531 4.09375 -3.3125 C 4.28125 -2.988281 4.375 -2.613281 4.375 -2.1875 C 4.375 -1.757812 4.28125 -1.378906 4.09375 -1.046875 C 3.914062 -0.722656 3.65625 -0.46875 3.3125 -0.28125 C 2.976562 -0.09375 2.585938 0 2.140625 0 Z M 1.1875 -0.53125 L 2.140625 -0.53125 C 2.472656 -0.53125 2.765625 -0.597656 3.015625 -0.734375 C 3.265625 -0.867188 3.460938 -1.0625 3.609375 -1.3125 C 3.753906 -1.5625 3.828125 -1.851562 3.828125 -2.1875 C 3.828125 -2.519531 3.753906 -2.804688 3.609375 -3.046875 C 3.460938 -3.296875 3.257812 -3.488281 3 -3.625 C 2.75 -3.769531 2.457031 -3.84375 2.125 -3.84375 L 1.1875 -3.84375 Z M 1.1875 -0.53125 "/></g></g></g><g fill="#ebe8e8" fill-opacity="1"><g transform="translate(99.472743, 234.279081)"><g><path d="M 1.84375 0 L 0.109375 -4.359375 L 0.6875 -4.359375 L 1.421875 -2.53125 L 2.09375 -0.796875 L 2.78125 -2.53125 L 3.515625 -4.359375 L 4.09375 -4.359375 L 2.359375 0 Z M 1.84375 0 "/></g></g></g><g fill="#ebe8e8" fill-opacity="1"><g transform="translate(108.649794, 234.279081)"><g><path d="M 0.640625 0 L 0.640625 -4.359375 L 3.28125 -4.359375 L 3.28125 -3.859375 L 1.1875 -3.859375 L 1.1875 -2.46875 L 3.125 -2.46875 L 3.125 -1.96875 L 1.1875 -1.96875 L 1.1875 -0.515625 L 3.359375 -0.515625 L 3.359375 0 Z M 0.640625 0 "/></g></g></g><g fill="#ebe8e8" fill-opacity="1"><g transform="translate(117.391254, 234.279081)"><g><path d="M 0.640625 0 L 0.640625 -4.359375 L 1.15625 -4.359375 L 3.5625 -0.953125 L 3.5625 -4.359375 L 4.109375 -4.359375 L 4.109375 0 L 3.59375 0 L 1.171875 -3.421875 L 1.171875 0 Z M 0.640625 0 "/></g></g></g><g fill="#ebe8e8" fill-opacity="1"><g transform="translate(127.109679, 234.279081)"><g><path d="M 1.6875 0 L 1.6875 -3.84375 L 0.21875 -3.84375 L 0.21875 -4.359375 L 3.703125 -4.359375 L 3.703125 -3.84375 L 2.234375 -3.84375 L 2.234375 0 Z M 1.6875 0 "/></g></g></g><g fill="#ebe8e8" fill-opacity="1"><g transform="translate(136.019156, 234.279081)"><g><path d="M 2.265625 0.078125 C 1.742188 0.078125 1.332031 -0.0820312 1.03125 -0.40625 C 0.738281 -0.738281 0.59375 -1.195312 0.59375 -1.78125 L 0.59375 -4.359375 L 1.125 -4.359375 L 1.125 -1.8125 C 1.125 -1.363281 1.222656 -1.023438 1.421875 -0.796875 C 1.617188 -0.578125 1.898438 -0.46875 2.265625 -0.46875 C 3.023438 -0.46875 3.40625 -0.914062 3.40625 -1.8125 L 3.40625 -4.359375 L 3.953125 -4.359375 L 3.953125 -1.78125 C 3.953125 -1.195312 3.800781 -0.738281 3.5 -0.40625 C 3.207031 -0.0820312 2.796875 0.078125 2.265625 0.078125 Z M 2.265625 0.078125 "/></g></g></g><g fill="#ebe8e8" fill-opacity="1"><g transform="translate(145.544679, 234.279081)"><g><path d="M 0.640625 0 L 0.640625 -4.359375 L 2.296875 -4.359375 C 2.597656 -4.359375 2.859375 -4.300781 3.078125 -4.1875 C 3.304688 -4.070312 3.484375 -3.910156 3.609375 -3.703125 C 3.734375 -3.492188 3.796875 -3.25 3.796875 -2.96875 C 3.796875 -2.613281 3.703125 -2.316406 3.515625 -2.078125 C 3.335938 -1.847656 3.09375 -1.695312 2.78125 -1.625 L 3.875 0 L 3.203125 0 L 2.140625 -1.5625 L 1.1875 -1.5625 L 1.1875 0 Z M 1.1875 -2.09375 L 2.234375 -2.09375 C 2.554688 -2.09375 2.800781 -2.164062 2.96875 -2.3125 C 3.144531 -2.46875 3.234375 -2.6875 3.234375 -2.96875 C 3.234375 -3.238281 3.144531 -3.453125 2.96875 -3.609375 C 2.800781 -3.765625 2.554688 -3.84375 2.234375 -3.84375 L 1.1875 -3.84375 Z M 1.1875 -2.09375 "/></g></g></g><g fill="#ebe8e8" fill-opacity="1"><g transform="translate(154.771512, 234.279081)"><g><path d="M 0.640625 0 L 0.640625 -4.359375 L 3.28125 -4.359375 L 3.28125 -3.859375 L 1.1875 -3.859375 L 1.1875 -2.46875 L 3.125 -2.46875 L 3.125 -1.96875 L 1.1875 -1.96875 L 1.1875 -0.515625 L 3.359375 -0.515625 L 3.359375 0 Z M 0.640625 0 "/></g></g></g><g fill="#ebe8e8" fill-opacity="1"><g transform="translate(163.512966, 234.279081)"><g/></g></g><g fill="#ebe8e8" fill-opacity="1"><g transform="translate(170.045357, 234.279081)"><g><path d="M 2.625 0.078125 C 2.175781 0.078125 1.78125 -0.015625 1.4375 -0.203125 C 1.101562 -0.398438 0.835938 -0.664062 0.640625 -1 C 0.453125 -1.34375 0.359375 -1.738281 0.359375 -2.1875 C 0.359375 -2.625 0.453125 -3.007812 0.640625 -3.34375 C 0.835938 -3.6875 1.101562 -3.953125 1.4375 -4.140625 C 1.78125 -4.335938 2.175781 -4.4375 2.625 -4.4375 C 3.0625 -4.4375 3.445312 -4.335938 3.78125 -4.140625 C 4.125 -3.953125 4.390625 -3.6875 4.578125 -3.34375 C 4.773438 -3.007812 4.875 -2.625 4.875 -2.1875 C 4.875 -1.738281 4.773438 -1.34375 4.578125 -1 C 4.390625 -0.664062 4.125 -0.398438 3.78125 -0.203125 C 3.445312 -0.015625 3.0625 0.078125 2.625 0.078125 Z M 0.921875 -2.1875 C 0.921875 -1.84375 0.992188 -1.539062 1.140625 -1.28125 C 1.285156 -1.03125 1.484375 -0.832031 1.734375 -0.6875 C 1.992188 -0.539062 2.289062 -0.46875 2.625 -0.46875 C 2.957031 -0.46875 3.25 -0.539062 3.5 -0.6875 C 3.757812 -0.832031 3.957031 -1.03125 4.09375 -1.28125 C 4.238281 -1.539062 4.3125 -1.84375 4.3125 -2.1875 C 4.3125 -2.519531 4.238281 -2.8125 4.09375 -3.0625 C 3.957031 -3.320312 3.757812 -3.523438 3.5 -3.671875 C 3.25 -3.816406 2.957031 -3.890625 2.625 -3.890625 C 2.289062 -3.890625 1.992188 -3.816406 1.734375 -3.671875 C 1.484375 -3.523438 1.285156 -3.320312 1.140625 -3.0625 C 0.992188 -2.8125 0.921875 -2.519531 0.921875 -2.1875 Z M 0.921875 -2.1875 "/></g></g></g><g fill="#ebe8e8" fill-opacity="1"><g transform="translate(180.2616, 234.279081)"><g><path d="M 0.640625 0 L 0.640625 -4.359375 L 3.140625 -4.359375 L 3.140625 -3.859375 L 1.1875 -3.859375 L 1.1875 -2.34375 L 2.96875 -2.34375 L 2.96875 -1.84375 L 1.1875 -1.84375 L 1.1875 0 Z M 0.640625 0 "/></g></g></g><g fill="#ebe8e8" fill-opacity="1"><g transform="translate(188.72304, 234.279081)"><g/></g></g><g fill="#ebe8e8" fill-opacity="1"><g transform="translate(195.25543, 234.279081)"><g><path d="M 0.640625 0 L 0.640625 -4.359375 L 1.140625 -4.359375 L 2.859375 -1.78125 L 4.5625 -4.359375 L 5.078125 -4.359375 L 5.078125 0 L 4.53125 0 L 4.53125 -3.328125 L 3.078125 -1.15625 L 2.625 -1.15625 L 1.1875 -3.34375 L 1.1875 0 Z M 0.640625 0 "/></g></g></g><g fill="#ebe8e8" fill-opacity="1"><g transform="translate(205.9446, 234.279081)"><g><path d="M 1.75 0 L 1.75 -1.578125 L 0.109375 -4.359375 L 0.734375 -4.359375 L 1.453125 -3.140625 L 2.015625 -2.15625 L 3.296875 -4.359375 L 3.921875 -4.359375 L 2.28125 -1.578125 L 2.28125 0 Z M 1.75 0 "/></g></g></g><g fill="#ebe8e8" fill-opacity="1"><g transform="translate(214.953641, 234.279081)"><g/></g></g><g fill="#ebe8e8" fill-opacity="1"><g transform="translate(221.486042, 234.279081)"><g><path d="M 1.53125 0 L 0.125 -4.359375 L 0.6875 -4.359375 L 1.296875 -2.484375 L 1.8125 -0.875 L 3.09375 -4.359375 L 3.609375 -4.359375 L 4.90625 -0.875 L 6.03125 -4.359375 L 6.609375 -4.359375 L 5.1875 0 L 4.671875 0 L 4.078125 -1.59375 L 3.359375 -3.53125 L 2.046875 0 Z M 1.53125 0 "/></g></g></g><g fill="#ebe8e8" fill-opacity="1"><g transform="translate(233.183299, 234.279081)"><g><path d="M 0.640625 0 L 0.640625 -4.359375 L 3.28125 -4.359375 L 3.28125 -3.859375 L 1.1875 -3.859375 L 1.1875 -2.46875 L 3.125 -2.46875 L 3.125 -1.96875 L 1.1875 -1.96875 L 1.1875 -0.515625 L 3.359375 -0.515625 L 3.359375 0 Z M 0.640625 0 "/></g></g></g><g fill="#ebe8e8" fill-opacity="1"><g transform="translate(241.924754, 234.279081)"><g><path d="M 0.640625 0 L 0.640625 -4.359375 L 2.328125 -4.359375 C 2.742188 -4.359375 3.078125 -4.253906 3.328125 -4.046875 C 3.578125 -3.835938 3.703125 -3.554688 3.703125 -3.203125 C 3.703125 -2.992188 3.648438 -2.804688 3.546875 -2.640625 C 3.453125 -2.484375 3.316406 -2.359375 3.140625 -2.265625 C 3.367188 -2.171875 3.539062 -2.035156 3.65625 -1.859375 C 3.769531 -1.679688 3.828125 -1.46875 3.828125 -1.21875 C 3.828125 -0.84375 3.695312 -0.546875 3.4375 -0.328125 C 3.1875 -0.109375 2.84375 0 2.40625 0 Z M 1.1875 -0.515625 L 2.390625 -0.515625 C 2.671875 -0.515625 2.882812 -0.578125 3.03125 -0.703125 C 3.1875 -0.828125 3.265625 -1.007812 3.265625 -1.25 C 3.265625 -1.476562 3.1875 -1.65625 3.03125 -1.78125 C 2.882812 -1.90625 2.671875 -1.96875 2.390625 -1.96875 L 1.1875 -1.96875 Z M 1.1875 -2.46875 L 2.3125 -2.46875 C 2.582031 -2.46875 2.785156 -2.53125 2.921875 -2.65625 C 3.066406 -2.78125 3.140625 -2.945312 3.140625 -3.15625 C 3.140625 -3.375 3.066406 -3.546875 2.921875 -3.671875 C 2.785156 -3.796875 2.582031 -3.859375 2.3125 -3.859375 L 1.1875 -3.859375 Z M 1.1875 -2.46875 "/></g></g></g><g fill="#ebe8e8" fill-opacity="1"><g transform="translate(251.089365, 234.279081)"><g/></g></g><g fill="#ebe8e8" fill-opacity="1"><g transform="translate(257.621767, 234.279081)"><g><path d="M 0.640625 0 L 0.640625 -4.359375 L 2.140625 -4.359375 C 2.585938 -4.359375 2.976562 -4.265625 3.3125 -4.078125 C 3.65625 -3.898438 3.914062 -3.644531 4.09375 -3.3125 C 4.28125 -2.988281 4.375 -2.613281 4.375 -2.1875 C 4.375 -1.757812 4.28125 -1.378906 4.09375 -1.046875 C 3.914062 -0.722656 3.65625 -0.46875 3.3125 -0.28125 C 2.976562 -0.09375 2.585938 0 2.140625 0 Z M 1.1875 -0.53125 L 2.140625 -0.53125 C 2.472656 -0.53125 2.765625 -0.597656 3.015625 -0.734375 C 3.265625 -0.867188 3.460938 -1.0625 3.609375 -1.3125 C 3.753906 -1.5625 3.828125 -1.851562 3.828125 -2.1875 C 3.828125 -2.519531 3.753906 -2.804688 3.609375 -3.046875 C 3.460938 -3.296875 3.257812 -3.488281 3 -3.625 C 2.75 -3.769531 2.457031 -3.84375 2.125 -3.84375 L 1.1875 -3.84375 Z M 1.1875 -0.53125 "/></g></g></g><g fill="#ebe8e8" fill-opacity="1"><g transform="translate(267.346429, 234.279081)"><g><path d="M 0.640625 0 L 0.640625 -4.359375 L 3.28125 -4.359375 L 3.28125 -3.859375 L 1.1875 -3.859375 L 1.1875 -2.46875 L 3.125 -2.46875 L 3.125 -1.96875 L 1.1875 -1.96875 L 1.1875 -0.515625 L 3.359375 -0.515625 L 3.359375 0 Z M 0.640625 0 "/></g></g></g><g fill="#ebe8e8" fill-opacity="1"><g transform="translate(276.087883, 234.279081)"><g><path d="M 1.84375 0 L 0.109375 -4.359375 L 0.6875 -4.359375 L 1.421875 -2.53125 L 2.09375 -0.796875 L 2.78125 -2.53125 L 3.515625 -4.359375 L 4.09375 -4.359375 L 2.359375 0 Z M 1.84375 0 "/></g></g></g><g fill="#ebe8e8" fill-opacity="1"><g transform="translate(285.264946, 234.279081)"><g><path d="M 0.640625 0 L 0.640625 -4.359375 L 3.28125 -4.359375 L 3.28125 -3.859375 L 1.1875 -3.859375 L 1.1875 -2.46875 L 3.125 -2.46875 L 3.125 -1.96875 L 1.1875 -1.96875 L 1.1875 -0.515625 L 3.359375 -0.515625 L 3.359375 0 Z M 0.640625 0 "/></g></g></g><g fill="#ebe8e8" fill-opacity="1"><g transform="translate(294.0064, 234.279081)"><g><path d="M 0.640625 0 L 0.640625 -4.359375 L 1.1875 -4.359375 L 1.1875 -0.53125 L 3.296875 -0.53125 L 3.296875 0 Z M 0.640625 0 "/></g></g></g><g fill="#ebe8e8" fill-opacity="1"><g transform="translate(302.486517, 234.279081)"><g><path d="M 2.625 0.078125 C 2.175781 0.078125 1.78125 -0.015625 1.4375 -0.203125 C 1.101562 -0.398438 0.835938 -0.664062 0.640625 -1 C 0.453125 -1.34375 0.359375 -1.738281 0.359375 -2.1875 C 0.359375 -2.625 0.453125 -3.007812 0.640625 -3.34375 C 0.835938 -3.6875 1.101562 -3.953125 1.4375 -4.140625 C 1.78125 -4.335938 2.175781 -4.4375 2.625 -4.4375 C 3.0625 -4.4375 3.445312 -4.335938 3.78125 -4.140625 C 4.125 -3.953125 4.390625 -3.6875 4.578125 -3.34375 C 4.773438 -3.007812 4.875 -2.625 4.875 -2.1875 C 4.875 -1.738281 4.773438 -1.34375 4.578125 -1 C 4.390625 -0.664062 4.125 -0.398438 3.78125 -0.203125 C 3.445312 -0.015625 3.0625 0.078125 2.625 0.078125 Z M 0.921875 -2.1875 C 0.921875 -1.84375 0.992188 -1.539062 1.140625 -1.28125 C 1.285156 -1.03125 1.484375 -0.832031 1.734375 -0.6875 C 1.992188 -0.539062 2.289062 -0.46875 2.625 -0.46875 C 2.957031 -0.46875 3.25 -0.539062 3.5 -0.6875 C 3.757812 -0.832031 3.957031 -1.03125 4.09375 -1.28125 C 4.238281 -1.539062 4.3125 -1.84375 4.3125 -2.1875 C 4.3125 -2.519531 4.238281 -2.8125 4.09375 -3.0625 C 3.957031 -3.320312 3.757812 -3.523438 3.5 -3.671875 C 3.25 -3.816406 2.957031 -3.890625 2.625 -3.890625 C 2.289062 -3.890625 1.992188 -3.816406 1.734375 -3.671875 C 1.484375 -3.523438 1.285156 -3.320312 1.140625 -3.0625 C 0.992188 -2.8125 0.921875 -2.519531 0.921875 -2.1875 Z M 0.921875 -2.1875 "/></g></g></g><g fill="#ebe8e8" fill-opacity="1"><g transform="translate(312.702772, 234.279081)"><g><path d="M 0.640625 0 L 0.640625 -4.359375 L 2.109375 -4.359375 C 2.441406 -4.359375 2.726562 -4.296875 2.96875 -4.171875 C 3.207031 -4.054688 3.394531 -3.890625 3.53125 -3.671875 C 3.664062 -3.453125 3.734375 -3.195312 3.734375 -2.90625 C 3.734375 -2.601562 3.664062 -2.34375 3.53125 -2.125 C 3.394531 -1.90625 3.207031 -1.734375 2.96875 -1.609375 C 2.726562 -1.492188 2.441406 -1.4375 2.109375 -1.4375 L 1.1875 -1.4375 L 1.1875 0 Z M 1.1875 -1.9375 L 2.09375 -1.9375 C 2.8125 -1.9375 3.171875 -2.253906 3.171875 -2.890625 C 3.171875 -3.523438 2.8125 -3.84375 2.09375 -3.84375 L 1.1875 -3.84375 Z M 1.1875 -1.9375 "/></g></g></g><g fill="#ebe8e8" fill-opacity="1"><g transform="translate(321.668256, 234.279081)"><g><path d="M 0.640625 0 L 0.640625 -4.359375 L 1.140625 -4.359375 L 2.859375 -1.78125 L 4.5625 -4.359375 L 5.078125 -4.359375 L 5.078125 0 L 4.53125 0 L 4.53125 -3.328125 L 3.078125 -1.15625 L 2.625 -1.15625 L 1.1875 -3.34375 L 1.1875 0 Z M 0.640625 0 "/></g></g></g><g fill="#ebe8e8" fill-opacity="1"><g transform="translate(332.357426, 234.279081)"><g><path d="M 0.640625 0 L 0.640625 -4.359375 L 3.28125 -4.359375 L 3.28125 -3.859375 L 1.1875 -3.859375 L 1.1875 -2.46875 L 3.125 -2.46875 L 3.125 -1.96875 L 1.1875 -1.96875 L 1.1875 -0.515625 L 3.359375 -0.515625 L 3.359375 0 Z M 0.640625 0 "/></g></g></g><g fill="#ebe8e8" fill-opacity="1"><g transform="translate(341.098881, 234.279081)"><g><path d="M 0.640625 0 L 0.640625 -4.359375 L 1.15625 -4.359375 L 3.5625 -0.953125 L 3.5625 -4.359375 L 4.109375 -4.359375 L 4.109375 0 L 3.59375 0 L 1.171875 -3.421875 L 1.171875 0 Z M 0.640625 0 "/></g></g></g><g fill="#ebe8e8" fill-opacity="1"><g transform="translate(350.817317, 234.279081)"><g><path d="M 1.6875 0 L 1.6875 -3.84375 L 0.21875 -3.84375 L 0.21875 -4.359375 L 3.703125 -4.359375 L 3.703125 -3.84375 L 2.234375 -3.84375 L 2.234375 0 Z M 1.6875 0 "/></g></g></g></svg>