<svg xmlns="http://www.w3.org/2000/svg" xmlns:xlink="http://www.w3.org/1999/xlink" width="1920" zoomAndPan="magnify" viewBox="0 0 1440 809.999993" height="1080" preserveAspectRatio="xMidYMid meet" version="1.0"><defs><g/></defs><g fill="#ebe8e8" fill-opacity="1"><g transform="translate(89.483447, 393.874966)"><g><path d="M 64.59375 0 L 3.40625 0 L 3.40625 -1.359375 C 6.570312 -2.171875 8.832031 -4.070312 10.1875 -7.0625 C 11.550781 -10.0625 12.234375 -14.054688 12.234375 -19.046875 L 12.234375 -136 C 12.234375 -141.070312 11.550781 -145.082031 10.1875 -148.03125 C 8.832031 -150.976562 6.570312 -152.863281 3.40625 -153.6875 L 3.40625 -155.046875 L 82.953125 -155.046875 C 91.753906 -155.046875 99.664062 -153.050781 106.6875 -149.0625 C 113.71875 -145.070312 119.296875 -139.472656 123.421875 -132.265625 C 127.546875 -125.054688 129.609375 -116.644531 129.609375 -107.03125 C 129.609375 -95.875 127.34375 -86.554688 122.8125 -79.078125 C 118.28125 -71.597656 112.023438 -65.976562 104.046875 -62.21875 C 96.066406 -58.457031 86.863281 -56.578125 76.4375 -56.578125 L 55.765625 -56.578125 L 55.765625 -19.046875 C 55.765625 -14.054688 56.441406 -10.0625 57.796875 -7.0625 C 59.160156 -4.070312 61.425781 -2.171875 64.59375 -1.359375 Z M 55.765625 -152.453125 L 55.765625 -59.96875 L 58.34375 -59.96875 C 63.601562 -59.96875 67.929688 -61.191406 71.328125 -63.640625 C 74.734375 -66.085938 77.410156 -69.488281 79.359375 -73.84375 C 81.304688 -78.195312 82.664062 -83.226562 83.4375 -88.9375 C 84.207031 -94.65625 84.59375 -100.734375 84.59375 -107.171875 C 84.59375 -112.878906 84.179688 -118.382812 83.359375 -123.6875 C 82.546875 -128.988281 81.070312 -133.75 78.9375 -137.96875 C 76.8125 -142.1875 73.890625 -145.585938 70.171875 -148.171875 C 66.453125 -150.753906 61.648438 -152.179688 55.765625 -152.453125 Z M 55.765625 -152.453125 "/></g></g></g><g fill="#ebe8e8" fill-opacity="1"><g transform="translate(221.127506, 393.874966)"><g><path d="M 112.46875 0 L 3.40625 0 L 3.40625 -1.359375 C 6.570312 -2.171875 8.832031 -4.070312 10.1875 -7.0625 C 11.550781 -10.0625 12.234375 -14.054688 12.234375 -19.046875 L 12.234375 -136 C 12.234375 -141.070312 11.550781 -145.082031 10.1875 -148.03125 C 8.832031 -150.976562 6.570312 -152.863281 3.40625 -153.6875 L 3.40625 -155.046875 L 112.46875 -155.046875 L 112.46875 -108.25 L 111.109375 -108.25 C 111.109375 -111.25 110.359375 -114.648438 108.859375 -118.453125 C 107.367188 -122.265625 105.21875 -126.164062 102.40625 -130.15625 C 99.59375 -134.144531 96.28125 -137.789062 92.46875 -141.09375 C 88.664062 -144.40625 84.40625 -147.101562 79.6875 -149.1875 C 74.976562 -151.269531 69.945312 -152.3125 64.59375 -152.3125 L 55.765625 -152.3125 L 55.765625 -84.1875 L 61.0625 -84.1875 C 64.414062 -84.1875 67.835938 -84.890625 71.328125 -86.296875 C 74.816406 -87.703125 78.082031 -89.515625 81.125 -91.734375 C 84.164062 -93.953125 86.703125 -96.421875 88.734375 -99.140625 C 90.773438 -101.859375 92.023438 -104.488281 92.484375 -107.03125 L 93.84375 -107.03125 L 93.84375 -58.609375 L 92.484375 -58.609375 C 92.023438 -61.242188 90.773438 -63.894531 88.734375 -66.5625 C 86.703125 -69.238281 84.164062 -71.6875 81.125 -73.90625 C 78.082031 -76.132812 74.816406 -77.953125 71.328125 -79.359375 C 67.835938 -80.765625 64.414062 -81.46875 61.0625 -81.46875 L 55.765625 -81.46875 L 55.765625 -2.71875 L 64.59375 -2.71875 C 69.945312 -2.71875 74.976562 -3.757812 79.6875 -5.84375 C 84.40625 -7.925781 88.664062 -10.625 92.46875 -13.9375 C 96.28125 -17.25 99.59375 -20.898438 102.40625 -24.890625 C 105.21875 -28.878906 107.367188 -32.773438 108.859375 -36.578125 C 110.359375 -40.390625 111.109375 -43.789062 111.109375 -46.78125 L 112.46875 -46.78125 Z M 112.46875 0 "/></g></g></g><g fill="#ebe8e8" fill-opacity="1"><g transform="translate(332.916136, 393.874966)"><g><path d="M 3.40625 -153.6875 L 3.40625 -155.046875 L 81.875 -155.046875 C 91.125 -155.046875 98.828125 -153.4375 104.984375 -150.21875 C 111.148438 -147 115.773438 -142.710938 118.859375 -137.359375 C 121.941406 -132.003906 123.484375 -126.113281 123.484375 -119.6875 C 123.484375 -112.96875 122.238281 -107.382812 119.75 -102.9375 C 117.257812 -98.5 113.789062 -95.007812 109.34375 -92.46875 C 104.90625 -89.9375 99.757812 -88.125 93.90625 -87.03125 C 88.0625 -85.945312 81.738281 -85.40625 74.9375 -85.40625 C 82.726562 -83.769531 89.09375 -81.296875 94.03125 -77.984375 C 98.976562 -74.679688 102.945312 -70.832031 105.9375 -66.4375 C 108.9375 -62.039062 111.273438 -57.367188 112.953125 -52.421875 C 114.628906 -47.484375 116.007812 -42.539062 117.09375 -37.59375 C 118.1875 -32.65625 119.34375 -28.03125 120.5625 -23.71875 C 121.789062 -19.414062 123.46875 -15.675781 125.59375 -12.5 C 127.726562 -9.332031 130.65625 -7.070312 134.375 -5.71875 C 134.375 -5.71875 134.078125 -5.304688 133.484375 -4.484375 C 132.890625 -3.671875 131.84375 -2.695312 130.34375 -1.5625 C 128.851562 -0.425781 126.75 0.546875 124.03125 1.359375 C 121.3125 2.171875 117.820312 2.578125 113.5625 2.578125 C 105.039062 2.578125 98.082031 1.351562 92.6875 -1.09375 C 87.289062 -3.539062 83.117188 -6.828125 80.171875 -10.953125 C 77.222656 -15.078125 75.113281 -19.695312 73.84375 -24.8125 C 72.570312 -29.9375 71.753906 -35.265625 71.390625 -40.796875 C 71.035156 -46.328125 70.765625 -51.65625 70.578125 -56.78125 C 70.398438 -61.90625 69.945312 -66.53125 69.21875 -70.65625 C 68.5 -74.78125 67.117188 -78.066406 65.078125 -80.515625 C 63.035156 -82.960938 59.929688 -84.1875 55.765625 -84.1875 L 55.765625 -19.046875 C 55.765625 -14.054688 56.441406 -10.0625 57.796875 -7.0625 C 59.160156 -4.070312 61.425781 -2.171875 64.59375 -1.359375 L 64.59375 0 L 3.40625 0 L 3.40625 -1.359375 C 6.570312 -2.171875 8.832031 -4.070312 10.1875 -7.0625 C 11.550781 -10.0625 12.234375 -14.054688 12.234375 -19.046875 L 12.234375 -136 C 12.234375 -141.070312 11.550781 -145.082031 10.1875 -148.03125 C 8.832031 -150.976562 6.570312 -152.863281 3.40625 -153.6875 Z M 58.484375 -153.265625 L 55.765625 -153.265625 L 55.765625 -86.90625 L 60.65625 -86.90625 C 64.101562 -86.90625 67.296875 -87.945312 70.234375 -90.03125 C 73.179688 -92.113281 75.539062 -95.648438 77.3125 -100.640625 C 79.082031 -105.628906 79.96875 -112.472656 79.96875 -121.171875 C 79.96875 -126.703125 79.332031 -131.914062 78.0625 -136.8125 C 76.789062 -141.707031 74.613281 -145.671875 71.53125 -148.703125 C 68.445312 -151.742188 64.097656 -153.265625 58.484375 -153.265625 Z M 58.484375 -153.265625 "/></g></g></g><g fill="#ebe8e8" fill-opacity="1"><g transform="translate(464.560194, 393.874966)"><g><path d="M 80.234375 -19.578125 C 80.234375 -25.566406 79.191406 -30.734375 77.109375 -35.078125 C 75.023438 -39.429688 72.210938 -43.238281 68.671875 -46.5 C 65.140625 -49.769531 61.175781 -52.742188 56.78125 -55.421875 C 52.382812 -58.097656 47.847656 -60.726562 43.171875 -63.3125 C 38.503906 -65.894531 33.972656 -68.660156 29.578125 -71.609375 C 25.179688 -74.554688 21.210938 -77.976562 17.671875 -81.875 C 14.140625 -85.769531 11.332031 -90.367188 9.25 -95.671875 C 7.164062 -100.972656 6.125 -107.253906 6.125 -114.515625 C 6.125 -124.390625 8.390625 -132.5 12.921875 -138.84375 C 17.453125 -145.195312 23.613281 -149.914062 31.40625 -153 C 39.207031 -156.082031 47.957031 -157.625 57.65625 -157.625 C 62.5625 -157.625 67.003906 -157.421875 70.984375 -157.015625 C 74.972656 -156.609375 78.960938 -156.175781 82.953125 -155.71875 C 86.941406 -155.269531 91.382812 -155.046875 96.28125 -155.046875 C 97.644531 -155.046875 99.117188 -155.25 100.703125 -155.65625 C 102.296875 -156.0625 103.453125 -156.71875 104.171875 -157.625 L 105.53125 -157.625 L 105.53125 -108.25 L 104.171875 -108.25 C 103.722656 -111.96875 102.5 -115.957031 100.5 -120.21875 C 98.507812 -124.476562 95.945312 -128.648438 92.8125 -132.734375 C 89.6875 -136.816406 86.175781 -140.554688 82.28125 -143.953125 C 78.382812 -147.359375 74.328125 -150.054688 70.109375 -152.046875 C 65.890625 -154.046875 61.695312 -155.046875 57.53125 -155.046875 C 52.363281 -155.046875 47.988281 -153.4375 44.40625 -150.21875 C 40.820312 -147 39.03125 -142.441406 39.03125 -136.546875 C 39.03125 -130.828125 40.070312 -125.882812 42.15625 -121.71875 C 44.238281 -117.550781 47.070312 -113.898438 50.65625 -110.765625 C 54.238281 -107.640625 58.226562 -104.785156 62.625 -102.203125 C 67.019531 -99.617188 71.597656 -97.078125 76.359375 -94.578125 C 81.117188 -92.085938 85.695312 -89.367188 90.09375 -86.421875 C 94.5 -83.484375 98.488281 -80.128906 102.0625 -76.359375 C 105.644531 -72.597656 108.476562 -68.132812 110.5625 -62.96875 C 112.65625 -57.800781 113.703125 -51.726562 113.703125 -44.75 C 113.703125 -38.039062 112.382812 -31.804688 109.75 -26.046875 C 107.125 -20.285156 103.429688 -15.273438 98.671875 -11.015625 C 93.910156 -6.753906 88.3125 -3.421875 81.875 -1.015625 C 75.4375 1.378906 68.410156 2.578125 60.796875 2.578125 C 53.359375 2.578125 46.625 2.007812 40.59375 0.875 C 34.5625 -0.25 28.894531 -2.015625 23.59375 -4.421875 C 18.289062 -6.828125 13.007812 -9.929688 7.75 -13.734375 L 7.75 -65.140625 L 9.390625 -65.140625 C 9.390625 -63.234375 10 -60.332031 11.21875 -56.4375 C 12.445312 -52.539062 14.191406 -48.144531 16.453125 -43.25 C 18.722656 -38.351562 21.421875 -33.410156 24.546875 -28.421875 C 27.671875 -23.429688 31.132812 -18.804688 34.9375 -14.546875 C 38.75 -10.285156 42.804688 -6.835938 47.109375 -4.203125 C 51.421875 -1.578125 55.890625 -0.265625 60.515625 -0.265625 C 65.597656 -0.265625 69.566406 -1.125 72.421875 -2.84375 C 75.273438 -4.570312 77.289062 -6.882812 78.46875 -9.78125 C 79.644531 -12.6875 80.234375 -15.953125 80.234375 -19.578125 Z M 80.234375 -19.578125 "/></g></g></g><g fill="#ebe8e8" fill-opacity="1"><g transform="translate(580.292687, 393.874966)"><g><path d="M 3.40625 0 L 3.40625 -1.359375 C 6.570312 -2.171875 8.832031 -4.070312 10.1875 -7.0625 C 11.550781 -10.0625 12.234375 -14.054688 12.234375 -19.046875 L 12.234375 -136 C 12.234375 -141.070312 11.550781 -145.082031 10.1875 -148.03125 C 8.832031 -150.976562 6.570312 -152.863281 3.40625 -153.6875 L 3.40625 -155.046875 L 64.59375 -155.046875 L 64.59375 -153.6875 C 61.425781 -152.863281 59.160156 -150.976562 57.796875 -148.03125 C 56.441406 -145.082031 55.765625 -141.070312 55.765625 -136 L 55.765625 -19.046875 C 55.765625 -14.054688 56.441406 -10.0625 57.796875 -7.0625 C 59.160156 -4.070312 61.425781 -2.171875 64.59375 -1.359375 L 64.59375 0 Z M 3.40625 0 "/></g></g></g><g fill="#ebe8e8" fill-opacity="1"><g transform="translate(644.210728, 393.874966)"><g><path d="M 80.234375 -19.578125 C 80.234375 -25.566406 79.191406 -30.734375 77.109375 -35.078125 C 75.023438 -39.429688 72.210938 -43.238281 68.671875 -46.5 C 65.140625 -49.769531 61.175781 -52.742188 56.78125 -55.421875 C 52.382812 -58.097656 47.847656 -60.726562 43.171875 -63.3125 C 38.503906 -65.894531 33.972656 -68.660156 29.578125 -71.609375 C 25.179688 -74.554688 21.210938 -77.976562 17.671875 -81.875 C 14.140625 -85.769531 11.332031 -90.367188 9.25 -95.671875 C 7.164062 -100.972656 6.125 -107.253906 6.125 -114.515625 C 6.125 -124.390625 8.390625 -132.5 12.921875 -138.84375 C 17.453125 -145.195312 23.613281 -149.914062 31.40625 -153 C 39.207031 -156.082031 47.957031 -157.625 57.65625 -157.625 C 62.5625 -157.625 67.003906 -157.421875 70.984375 -157.015625 C 74.972656 -156.609375 78.960938 -156.175781 82.953125 -155.71875 C 86.941406 -155.269531 91.382812 -155.046875 96.28125 -155.046875 C 97.644531 -155.046875 99.117188 -155.25 100.703125 -155.65625 C 102.296875 -156.0625 103.453125 -156.71875 104.171875 -157.625 L 105.53125 -157.625 L 105.53125 -108.25 L 104.171875 -108.25 C 103.722656 -111.96875 102.5 -115.957031 100.5 -120.21875 C 98.507812 -124.476562 95.945312 -128.648438 92.8125 -132.734375 C 89.6875 -136.816406 86.175781 -140.554688 82.28125 -143.953125 C 78.382812 -147.359375 74.328125 -150.054688 70.109375 -152.046875 C 65.890625 -154.046875 61.695312 -155.046875 57.53125 -155.046875 C 52.363281 -155.046875 47.988281 -153.4375 44.40625 -150.21875 C 40.820312 -147 39.03125 -142.441406 39.03125 -136.546875 C 39.03125 -130.828125 40.070312 -125.882812 42.15625 -121.71875 C 44.238281 -117.550781 47.070312 -113.898438 50.65625 -110.765625 C 54.238281 -107.640625 58.226562 -104.785156 62.625 -102.203125 C 67.019531 -99.617188 71.597656 -97.078125 76.359375 -94.578125 C 81.117188 -92.085938 85.695312 -89.367188 90.09375 -86.421875 C 94.5 -83.484375 98.488281 -80.128906 102.0625 -76.359375 C 105.644531 -72.597656 108.476562 -68.132812 110.5625 -62.96875 C 112.65625 -57.800781 113.703125 -51.726562 113.703125 -44.75 C 113.703125 -38.039062 112.382812 -31.804688 109.75 -26.046875 C 107.125 -20.285156 103.429688 -15.273438 98.671875 -11.015625 C 93.910156 -6.753906 88.3125 -3.421875 81.875 -1.015625 C 75.4375 1.378906 68.410156 2.578125 60.796875 2.578125 C 53.359375 2.578125 46.625 2.007812 40.59375 0.875 C 34.5625 -0.25 28.894531 -2.015625 23.59375 -4.421875 C 18.289062 -6.828125 13.007812 -9.929688 7.75 -13.734375 L 7.75 -65.140625 L 9.390625 -65.140625 C 9.390625 -63.234375 10 -60.332031 11.21875 -56.4375 C 12.445312 -52.539062 14.191406 -48.144531 16.453125 -43.25 C 18.722656 -38.351562 21.421875 -33.410156 24.546875 -28.421875 C 27.671875 -23.429688 31.132812 -18.804688 34.9375 -14.546875 C 38.75 -10.285156 42.804688 -6.835938 47.109375 -4.203125 C 51.421875 -1.578125 55.890625 -0.265625 60.515625 -0.265625 C 65.597656 -0.265625 69.566406 -1.125 72.421875 -2.84375 C 75.273438 -4.570312 77.289062 -6.882812 78.46875 -9.78125 C 79.644531 -12.6875 80.234375 -15.953125 80.234375 -19.578125 Z M 80.234375 -19.578125 "/></g></g></g><g fill="#ebe8e8" fill-opacity="1"><g transform="translate(759.943221, 393.874966)"><g><path d="M 3.40625 -102.6875 L 3.40625 -155.046875 L 121.171875 -155.046875 L 121.171875 -102.6875 L 119.8125 -102.6875 C 119.8125 -106.582031 119.195312 -110.769531 117.96875 -115.25 C 116.75 -119.738281 115.03125 -124.179688 112.8125 -128.578125 C 110.59375 -132.984375 108.007812 -136.972656 105.0625 -140.546875 C 102.113281 -144.128906 98.914062 -146.984375 95.46875 -149.109375 C 92.019531 -151.242188 88.441406 -152.3125 84.734375 -152.3125 L 83.375 -152.3125 L 83.375 -19.046875 C 83.375 -14.054688 84.050781 -10.0625 85.40625 -7.0625 C 86.769531 -4.070312 89.035156 -2.171875 92.203125 -1.359375 L 92.203125 0 L 31.015625 0 L 31.015625 -1.359375 C 34.179688 -2.171875 36.441406 -4.070312 37.796875 -7.0625 C 39.160156 -10.0625 39.84375 -14.054688 39.84375 -19.046875 L 39.84375 -152.3125 C 36.21875 -152.3125 32.660156 -151.242188 29.171875 -149.109375 C 25.679688 -146.984375 22.460938 -144.128906 19.515625 -140.546875 C 16.566406 -136.972656 13.984375 -132.984375 11.765625 -128.578125 C 9.546875 -124.179688 7.820312 -119.738281 6.59375 -115.25 C 5.375 -110.769531 4.765625 -106.582031 4.765625 -102.6875 Z M 3.40625 -102.6875 "/></g></g></g><g fill="#ebe8e8" fill-opacity="1"><g transform="translate(880.435586, 393.874966)"><g><path d="M 112.46875 0 L 3.40625 0 L 3.40625 -1.359375 C 6.570312 -2.171875 8.832031 -4.070312 10.1875 -7.0625 C 11.550781 -10.0625 12.234375 -14.054688 12.234375 -19.046875 L 12.234375 -136 C 12.234375 -141.070312 11.550781 -145.082031 10.1875 -148.03125 C 8.832031 -150.976562 6.570312 -152.863281 3.40625 -153.6875 L 3.40625 -155.046875 L 112.46875 -155.046875 L 112.46875 -108.25 L 111.109375 -108.25 C 111.109375 -111.25 110.359375 -114.648438 108.859375 -118.453125 C 107.367188 -122.265625 105.21875 -126.164062 102.40625 -130.15625 C 99.59375 -134.144531 96.28125 -137.789062 92.46875 -141.09375 C 88.664062 -144.40625 84.40625 -147.101562 79.6875 -149.1875 C 74.976562 -151.269531 69.945312 -152.3125 64.59375 -152.3125 L 55.765625 -152.3125 L 55.765625 -84.1875 L 61.0625 -84.1875 C 64.414062 -84.1875 67.835938 -84.890625 71.328125 -86.296875 C 74.816406 -87.703125 78.082031 -89.515625 81.125 -91.734375 C 84.164062 -93.953125 86.703125 -96.421875 88.734375 -99.140625 C 90.773438 -101.859375 92.023438 -104.488281 92.484375 -107.03125 L 93.84375 -107.03125 L 93.84375 -58.609375 L 92.484375 -58.609375 C 92.023438 -61.242188 90.773438 -63.894531 88.734375 -66.5625 C 86.703125 -69.238281 84.164062 -71.6875 81.125 -73.90625 C 78.082031 -76.132812 74.816406 -77.953125 71.328125 -79.359375 C 67.835938 -80.765625 64.414062 -81.46875 61.0625 -81.46875 L 55.765625 -81.46875 L 55.765625 -2.71875 L 64.59375 -2.71875 C 69.945312 -2.71875 74.976562 -3.757812 79.6875 -5.84375 C 84.40625 -7.925781 88.664062 -10.625 92.46875 -13.9375 C 96.28125 -17.25 99.59375 -20.898438 102.40625 -24.890625 C 105.21875 -28.878906 107.367188 -32.773438 108.859375 -36.578125 C 110.359375 -40.390625 111.109375 -43.789062 111.109375 -46.78125 L 112.46875 -46.78125 Z M 112.46875 0 "/></g></g></g><g fill="#ebe8e8" fill-opacity="1"><g transform="translate(992.224215, 393.874966)"><g><path d="M 3.40625 -153.6875 L 3.40625 -155.046875 L 47.734375 -155.046875 L 112.203125 -44.46875 L 112.203125 -53.3125 C 112.203125 -60.019531 111.75 -67.09375 110.84375 -74.53125 C 109.9375 -81.96875 108.664062 -89.398438 107.03125 -96.828125 C 105.394531 -104.265625 103.488281 -111.3125 101.3125 -117.96875 C 99.144531 -124.632812 96.722656 -130.617188 94.046875 -135.921875 C 91.367188 -141.234375 88.578125 -145.453125 85.671875 -148.578125 C 82.773438 -151.703125 79.832031 -153.40625 76.84375 -153.6875 L 76.84375 -155.046875 L 123.765625 -155.046875 L 123.765625 -153.6875 C 120.585938 -152.863281 118.316406 -150.976562 116.953125 -148.03125 C 115.597656 -145.082031 114.921875 -141.070312 114.921875 -136 L 114.921875 -19.046875 C 114.921875 -14.054688 115.597656 -10.0625 116.953125 -7.0625 C 118.316406 -4.070312 120.585938 -2.171875 123.765625 -1.359375 L 123.765625 0 L 86.09375 0 L 14.953125 -122.125 L 14.953125 -114.78125 C 14.953125 -107.4375 15.382812 -99.679688 16.25 -91.515625 C 17.113281 -83.359375 18.359375 -75.203125 19.984375 -67.046875 C 21.617188 -58.890625 23.566406 -51.070312 25.828125 -43.59375 C 28.097656 -36.113281 30.59375 -29.332031 33.3125 -23.25 C 36.039062 -17.175781 38.941406 -12.234375 42.015625 -8.421875 C 45.097656 -4.617188 48.320312 -2.265625 51.6875 -1.359375 L 51.6875 0 L 3.40625 0 L 3.40625 -1.359375 C 6.570312 -2.171875 8.832031 -4.070312 10.1875 -7.0625 C 11.550781 -10.0625 12.234375 -14.054688 12.234375 -19.046875 L 12.234375 -136 C 12.234375 -141.070312 11.550781 -145.082031 10.1875 -148.03125 C 8.832031 -150.976562 6.570312 -152.863281 3.40625 -153.6875 Z M 3.40625 -153.6875 "/></g></g></g><g fill="#ebe8e8" fill-opacity="1"><g transform="translate(1115.300473, 393.874966)"><g><path d="M 6.125 -77.515625 C 6.125 -90.023438 7.9375 -101.242188 11.5625 -111.171875 C 15.1875 -121.109375 20.148438 -129.519531 26.453125 -136.40625 C 32.753906 -143.300781 39.984375 -148.5625 48.140625 -152.1875 C 56.304688 -155.8125 64.96875 -157.625 74.125 -157.625 C 77.84375 -157.625 81.015625 -157.488281 83.640625 -157.21875 C 86.265625 -156.945312 88.753906 -156.648438 91.109375 -156.328125 C 93.472656 -156.015625 95.992188 -155.722656 98.671875 -155.453125 C 101.347656 -155.179688 104.5 -155.046875 108.125 -155.046875 C 109.476562 -155.046875 110.945312 -155.25 112.53125 -155.65625 C 114.125 -156.0625 115.285156 -156.71875 116.015625 -157.625 L 117.375 -157.625 L 117.375 -108.25 L 116.015625 -108.25 C 115.554688 -111.96875 114.671875 -115.9375 113.359375 -120.15625 C 112.046875 -124.375 110.34375 -128.519531 108.25 -132.59375 C 106.164062 -136.675781 103.695312 -140.394531 100.84375 -143.75 C 97.988281 -147.101562 94.789062 -149.773438 91.25 -151.765625 C 87.71875 -153.765625 83.867188 -154.765625 79.703125 -154.765625 C 74.441406 -154.765625 69.992188 -152.609375 66.359375 -148.296875 C 62.734375 -143.992188 59.785156 -138.171875 57.515625 -130.828125 C 55.253906 -123.484375 53.601562 -115.207031 52.5625 -106 C 51.519531 -96.800781 51 -87.265625 51 -77.390625 C 51 -69.585938 51.316406 -61.921875 51.953125 -54.390625 C 52.585938 -46.867188 53.609375 -39.820312 55.015625 -33.25 C 56.421875 -26.675781 58.253906 -20.894531 60.515625 -15.90625 C 62.785156 -10.925781 65.503906 -7.03125 68.671875 -4.21875 C 71.847656 -1.40625 75.523438 0 79.703125 0 C 83.140625 0 86.351562 -1.085938 89.34375 -3.265625 C 92.34375 -5.441406 95.085938 -8.34375 97.578125 -11.96875 C 100.066406 -15.59375 102.304688 -19.582031 104.296875 -23.9375 C 106.296875 -28.289062 108.066406 -32.640625 109.609375 -36.984375 C 111.148438 -41.335938 112.441406 -45.375 113.484375 -49.09375 C 114.535156 -52.8125 115.378906 -55.757812 116.015625 -57.9375 L 117.375 -57.9375 L 117.375 -8.5625 C 117.375 -8.5625 116.554688 -7.992188 114.921875 -6.859375 C 113.285156 -5.734375 110.742188 -4.441406 107.296875 -2.984375 C 103.859375 -1.535156 99.394531 -0.25 93.90625 0.875 C 88.425781 2.007812 81.832031 2.578125 74.125 2.578125 C 64.96875 2.578125 56.304688 0.765625 48.140625 -2.859375 C 39.984375 -6.484375 32.753906 -11.738281 26.453125 -18.625 C 20.148438 -25.519531 15.1875 -33.929688 11.5625 -43.859375 C 7.9375 -53.785156 6.125 -65.003906 6.125 -77.515625 Z M 6.125 -77.515625 "/></g></g></g><g fill="#ebe8e8" fill-opacity="1"><g transform="translate(1234.704917, 393.874966)"><g><path d="M 112.46875 0 L 3.40625 0 L 3.40625 -1.359375 C 6.570312 -2.171875 8.832031 -4.070312 10.1875 -7.0625 C 11.550781 -10.0625 12.234375 -14.054688 12.234375 -19.046875 L 12.234375 -136 C 12.234375 -141.070312 11.550781 -145.082031 10.1875 -148.03125 C 8.832031 -150.976562 6.570312 -152.863281 3.40625 -153.6875 L 3.40625 -155.046875 L 112.46875 -155.046875 L 112.46875 -108.25 L 111.109375 -108.25 C 111.109375 -111.25 110.359375 -114.648438 108.859375 -118.453125 C 107.367188 -122.265625 105.21875 -126.164062 102.40625 -130.15625 C 99.59375 -134.144531 96.28125 -137.789062 92.46875 -141.09375 C 88.664062 -144.40625 84.40625 -147.101562 79.6875 -149.1875 C 74.976562 -151.269531 69.945312 -152.3125 64.59375 -152.3125 L 55.765625 -152.3125 L 55.765625 -84.1875 L 61.0625 -84.1875 C 64.414062 -84.1875 67.835938 -84.890625 71.328125 -86.296875 C 74.816406 -87.703125 78.082031 -89.515625 81.125 -91.734375 C 84.164062 -93.953125 86.703125 -96.421875 88.734375 -99.140625 C 90.773438 -101.859375 92.023438 -104.488281 92.484375 -107.03125 L 93.84375 -107.03125 L 93.84375 -58.609375 L 92.484375 -58.609375 C 92.023438 -61.242188 90.773438 -63.894531 88.734375 -66.5625 C 86.703125 -69.238281 84.164062 -71.6875 81.125 -73.90625 C 78.082031 -76.132812 74.816406 -77.953125 71.328125 -79.359375 C 67.835938 -80.765625 64.414062 -81.46875 61.0625 -81.46875 L 55.765625 -81.46875 L 55.765625 -2.71875 L 64.59375 -2.71875 C 69.945312 -2.71875 74.976562 -3.757812 79.6875 -5.84375 C 84.40625 -7.925781 88.664062 -10.625 92.46875 -13.9375 C 96.28125 -17.25 99.59375 -20.898438 102.40625 -24.890625 C 105.21875 -28.878906 107.367188 -32.773438 108.859375 -36.578125 C 110.359375 -40.390625 111.109375 -43.789062 111.109375 -46.78125 L 112.46875 -46.78125 Z M 112.46875 0 "/></g></g></g><g fill="#ebe8e8" fill-opacity="1"><g transform="translate(100.723537, 441.724942)"><g><path d="M 2.34375 0 L 2.34375 -16.09375 L 4.234375 -16.09375 L 10.5625 -6.5625 L 16.84375 -16.09375 L 18.71875 -16.09375 L 18.71875 0 L 16.703125 0 L 16.703125 -12.3125 L 11.359375 -4.28125 L 9.703125 -4.28125 L 4.375 -12.328125 L 4.375 0 Z M 2.34375 0 "/></g></g></g><g fill="#ebe8e8" fill-opacity="1"><g transform="translate(140.18464, 441.724942)"><g><path d="M 6.4375 0 L 6.4375 -5.796875 L 0.390625 -16.09375 L 2.734375 -16.09375 L 5.359375 -11.59375 L 7.453125 -7.953125 L 12.1875 -16.09375 L 14.46875 -16.09375 L 8.421875 -5.796875 L 8.421875 0 Z M 6.4375 0 "/></g></g></g><g fill="#ebe8e8" fill-opacity="1"><g transform="translate(173.437839, 441.724942)"><g/></g></g><g fill="#ebe8e8" fill-opacity="1"><g transform="translate(197.540114, 441.724942)"><g><path d="M 1.015625 0 L 1.015625 -1.9375 L 3.3125 -1.9375 C 4.601562 -1.9375 5.492188 -2.25 5.984375 -2.875 C 6.472656 -3.5 6.71875 -4.347656 6.71875 -5.421875 L 6.71875 -16.09375 L 8.734375 -16.09375 L 8.734375 -5.3125 C 8.734375 -3.71875 8.289062 -2.429688 7.40625 -1.453125 C 6.53125 -0.484375 5.164062 0 3.3125 0 Z M 1.015625 0 "/></g></g></g><g fill="#ebe8e8" fill-opacity="1"><g transform="translate(226.976594, 441.724942)"><g><path d="M 9.65625 0.296875 C 8.03125 0.296875 6.585938 -0.0546875 5.328125 -0.765625 C 4.078125 -1.484375 3.097656 -2.46875 2.390625 -3.71875 C 1.679688 -4.976562 1.328125 -6.421875 1.328125 -8.046875 C 1.328125 -9.691406 1.679688 -11.140625 2.390625 -12.390625 C 3.097656 -13.640625 4.078125 -14.617188 5.328125 -15.328125 C 6.585938 -16.046875 8.03125 -16.40625 9.65625 -16.40625 C 11.300781 -16.40625 12.75 -16.046875 14 -15.328125 C 15.25 -14.617188 16.226562 -13.640625 16.9375 -12.390625 C 17.65625 -11.140625 18.015625 -9.691406 18.015625 -8.046875 C 18.015625 -6.421875 17.65625 -4.976562 16.9375 -3.71875 C 16.226562 -2.46875 15.25 -1.484375 14 -0.765625 C 12.75 -0.0546875 11.300781 0.296875 9.65625 0.296875 Z M 3.40625 -8.046875 C 3.40625 -6.804688 3.664062 -5.707031 4.1875 -4.75 C 4.71875 -3.800781 5.453125 -3.054688 6.390625 -2.515625 C 7.335938 -1.984375 8.425781 -1.71875 9.65625 -1.71875 C 10.894531 -1.71875 11.984375 -1.984375 12.921875 -2.515625 C 13.859375 -3.054688 14.59375 -3.800781 15.125 -4.75 C 15.65625 -5.707031 15.921875 -6.804688 15.921875 -8.046875 C 15.921875 -9.304688 15.65625 -10.40625 15.125 -11.34375 C 14.59375 -12.289062 13.859375 -13.03125 12.921875 -13.5625 C 11.984375 -14.101562 10.894531 -14.375 9.65625 -14.375 C 8.425781 -14.375 7.335938 -14.101562 6.390625 -13.5625 C 5.453125 -13.03125 4.71875 -12.289062 4.1875 -11.34375 C 3.664062 -10.40625 3.40625 -9.304688 3.40625 -8.046875 Z M 3.40625 -8.046875 "/></g></g></g><g fill="#ebe8e8" fill-opacity="1"><g transform="translate(264.690288, 441.724942)"><g><path d="M 6.4375 0 L 6.4375 -5.796875 L 0.390625 -16.09375 L 2.734375 -16.09375 L 5.359375 -11.59375 L 7.453125 -7.953125 L 12.1875 -16.09375 L 14.46875 -16.09375 L 8.421875 -5.796875 L 8.421875 0 Z M 6.4375 0 "/></g></g></g><g fill="#ebe8e8" fill-opacity="1"><g transform="translate(297.943498, 441.724942)"><g><path d="M 2.34375 0 L 2.34375 -16.09375 L 11.5625 -16.09375 L 11.5625 -14.21875 L 4.375 -14.21875 L 4.375 -8.640625 L 10.96875 -8.640625 L 10.96875 -6.78125 L 4.375 -6.78125 L 4.375 0 Z M 2.34375 0 "/></g></g></g><g fill="#ebe8e8" fill-opacity="1"><g transform="translate(329.17337, 441.724942)"><g><path d="M 8.375 0.28125 C 6.425781 0.28125 4.898438 -0.320312 3.796875 -1.53125 C 2.703125 -2.75 2.15625 -4.425781 2.15625 -6.5625 L 2.15625 -16.09375 L 4.15625 -16.09375 L 4.15625 -6.6875 C 4.15625 -5.050781 4.515625 -3.8125 5.234375 -2.96875 C 5.960938 -2.125 7.007812 -1.703125 8.375 -1.703125 C 11.175781 -1.703125 12.578125 -3.363281 12.578125 -6.6875 L 12.578125 -16.09375 L 14.609375 -16.09375 L 14.609375 -6.5625 C 14.609375 -4.425781 14.054688 -2.75 12.953125 -1.53125 C 11.847656 -0.320312 10.320312 0.28125 8.375 0.28125 Z M 8.375 0.28125 "/></g></g></g><g fill="#ebe8e8" fill-opacity="1"><g transform="translate(364.334929, 441.724942)"><g><path d="M 2.34375 0 L 2.34375 -16.09375 L 4.375 -16.09375 L 4.375 -1.9375 L 12.1875 -1.9375 L 12.1875 0 Z M 2.34375 0 "/></g></g></g><g fill="#ebe8e8" fill-opacity="1"><g transform="translate(395.633786, 441.724942)"><g/></g></g><g fill="#ebe8e8" fill-opacity="1"><g transform="translate(419.73605, 441.724942)"><g><path d="M 0.390625 0 L 7.015625 -16.09375 L 8.90625 -16.09375 L 15.53125 0 L 13.390625 0 L 11.875 -3.65625 L 4.03125 -3.65625 L 2.546875 0 Z M 4.8125 -5.546875 L 11.109375 -5.546875 L 7.953125 -13.265625 Z M 4.8125 -5.546875 "/></g></g></g><g fill="#ebe8e8" fill-opacity="1"><g transform="translate(454.0469, 441.724942)"><g><path d="M 2.34375 0 L 2.34375 -16.09375 L 7.90625 -16.09375 C 9.5625 -16.09375 11.003906 -15.75 12.234375 -15.0625 C 13.472656 -14.382812 14.4375 -13.441406 15.125 -12.234375 C 15.820312 -11.035156 16.171875 -9.640625 16.171875 -8.046875 C 16.171875 -6.472656 15.820312 -5.078125 15.125 -3.859375 C 14.4375 -2.648438 13.472656 -1.703125 12.234375 -1.015625 C 11.003906 -0.335938 9.5625 0 7.90625 0 Z M 4.375 -1.9375 L 7.90625 -1.9375 C 9.132812 -1.9375 10.210938 -2.191406 11.140625 -2.703125 C 12.066406 -3.210938 12.789062 -3.925781 13.3125 -4.84375 C 13.832031 -5.769531 14.09375 -6.835938 14.09375 -8.046875 C 14.09375 -9.273438 13.828125 -10.34375 13.296875 -11.25 C 12.773438 -12.164062 12.046875 -12.878906 11.109375 -13.390625 C 10.171875 -13.910156 9.070312 -14.171875 7.8125 -14.171875 L 4.375 -14.171875 Z M 4.375 -1.9375 "/></g></g></g><g fill="#ebe8e8" fill-opacity="1"><g transform="translate(489.944222, 441.724942)"><g><path d="M 6.8125 0 L 0.390625 -16.09375 L 2.546875 -16.09375 L 5.21875 -9.3125 L 7.75 -2.921875 L 10.265625 -9.3125 L 12.953125 -16.09375 L 15.09375 -16.09375 L 8.6875 0 Z M 6.8125 0 "/></g></g></g><g fill="#ebe8e8" fill-opacity="1"><g transform="translate(523.818182, 441.724942)"><g><path d="M 2.34375 0 L 2.34375 -16.09375 L 12.125 -16.09375 L 12.125 -14.21875 L 4.375 -14.21875 L 4.375 -9.125 L 11.546875 -9.125 L 11.546875 -7.265625 L 4.375 -7.265625 L 4.375 -1.890625 L 12.375 -1.890625 L 12.375 0 Z M 2.34375 0 "/></g></g></g><g fill="#ebe8e8" fill-opacity="1"><g transform="translate(556.082737, 441.724942)"><g><path d="M 2.34375 0 L 2.34375 -16.09375 L 4.25 -16.09375 L 13.15625 -3.5 L 13.15625 -16.09375 L 15.140625 -16.09375 L 15.140625 0 L 13.25 0 L 4.34375 -12.609375 L 4.34375 0 Z M 2.34375 0 "/></g></g></g><g fill="#ebe8e8" fill-opacity="1"><g transform="translate(591.957033, 441.724942)"><g><path d="M 6.234375 0 L 6.234375 -14.171875 L 0.78125 -14.171875 L 0.78125 -16.09375 L 13.6875 -16.09375 L 13.6875 -14.171875 L 8.25 -14.171875 L 8.25 0 Z M 6.234375 0 "/></g></g></g><g fill="#ebe8e8" fill-opacity="1"><g transform="translate(624.842362, 441.724942)"><g><path d="M 8.375 0.28125 C 6.425781 0.28125 4.898438 -0.320312 3.796875 -1.53125 C 2.703125 -2.75 2.15625 -4.425781 2.15625 -6.5625 L 2.15625 -16.09375 L 4.15625 -16.09375 L 4.15625 -6.6875 C 4.15625 -5.050781 4.515625 -3.8125 5.234375 -2.96875 C 5.960938 -2.125 7.007812 -1.703125 8.375 -1.703125 C 11.175781 -1.703125 12.578125 -3.363281 12.578125 -6.6875 L 12.578125 -16.09375 L 14.609375 -16.09375 L 14.609375 -6.5625 C 14.609375 -4.425781 14.054688 -2.75 12.953125 -1.53125 C 11.847656 -0.320312 10.320312 0.28125 8.375 0.28125 Z M 8.375 0.28125 "/></g></g></g><g fill="#ebe8e8" fill-opacity="1"><g transform="translate(660.00392, 441.724942)"><g><path d="M 2.34375 0 L 2.34375 -16.09375 L 8.484375 -16.09375 C 9.609375 -16.09375 10.582031 -15.878906 11.40625 -15.453125 C 12.238281 -15.035156 12.882812 -14.441406 13.34375 -13.671875 C 13.800781 -12.910156 14.03125 -11.992188 14.03125 -10.921875 C 14.03125 -9.617188 13.691406 -8.539062 13.015625 -7.6875 C 12.335938 -6.84375 11.410156 -6.273438 10.234375 -5.984375 L 14.28125 0 L 11.84375 0 L 7.90625 -5.765625 L 4.375 -5.765625 L 4.375 0 Z M 4.375 -7.703125 L 8.25 -7.703125 C 9.4375 -7.703125 10.347656 -7.984375 10.984375 -8.546875 C 11.628906 -9.109375 11.953125 -9.898438 11.953125 -10.921875 C 11.953125 -11.953125 11.628906 -12.75 10.984375 -13.3125 C 10.347656 -13.882812 9.4375 -14.171875 8.25 -14.171875 L 4.375 -14.171875 Z M 4.375 -7.703125 "/></g></g></g><g fill="#ebe8e8" fill-opacity="1"><g transform="translate(694.061856, 441.724942)"><g><path d="M 2.34375 0 L 2.34375 -16.09375 L 12.125 -16.09375 L 12.125 -14.21875 L 4.375 -14.21875 L 4.375 -9.125 L 11.546875 -9.125 L 11.546875 -7.265625 L 4.375 -7.265625 L 4.375 -1.890625 L 12.375 -1.890625 L 12.375 0 Z M 2.34375 0 "/></g></g></g><g fill="#ebe8e8" fill-opacity="1"><g transform="translate(726.326411, 441.724942)"><g/></g></g><g fill="#ebe8e8" fill-opacity="1"><g transform="translate(750.428674, 441.724942)"><g><path d="M 9.65625 0.296875 C 8.03125 0.296875 6.585938 -0.0546875 5.328125 -0.765625 C 4.078125 -1.484375 3.097656 -2.46875 2.390625 -3.71875 C 1.679688 -4.976562 1.328125 -6.421875 1.328125 -8.046875 C 1.328125 -9.691406 1.679688 -11.140625 2.390625 -12.390625 C 3.097656 -13.640625 4.078125 -14.617188 5.328125 -15.328125 C 6.585938 -16.046875 8.03125 -16.40625 9.65625 -16.40625 C 11.300781 -16.40625 12.75 -16.046875 14 -15.328125 C 15.25 -14.617188 16.226562 -13.640625 16.9375 -12.390625 C 17.65625 -11.140625 18.015625 -9.691406 18.015625 -8.046875 C 18.015625 -6.421875 17.65625 -4.976562 16.9375 -3.71875 C 16.226562 -2.46875 15.25 -1.484375 14 -0.765625 C 12.75 -0.0546875 11.300781 0.296875 9.65625 0.296875 Z M 3.40625 -8.046875 C 3.40625 -6.804688 3.664062 -5.707031 4.1875 -4.75 C 4.71875 -3.800781 5.453125 -3.054688 6.390625 -2.515625 C 7.335938 -1.984375 8.425781 -1.71875 9.65625 -1.71875 C 10.894531 -1.71875 11.984375 -1.984375 12.921875 -2.515625 C 13.859375 -3.054688 14.59375 -3.800781 15.125 -4.75 C 15.65625 -5.707031 15.921875 -6.804688 15.921875 -8.046875 C 15.921875 -9.304688 15.65625 -10.40625 15.125 -11.34375 C 14.59375 -12.289062 13.859375 -13.03125 12.921875 -13.5625 C 11.984375 -14.101562 10.894531 -14.375 9.65625 -14.375 C 8.425781 -14.375 7.335938 -14.101562 6.390625 -13.5625 C 5.453125 -13.03125 4.71875 -12.289062 4.1875 -11.34375 C 3.664062 -10.40625 3.40625 -9.304688 3.40625 -8.046875 Z M 3.40625 -8.046875 "/></g></g></g><g fill="#ebe8e8" fill-opacity="1"><g transform="translate(788.142357, 441.724942)"><g><path d="M 2.34375 0 L 2.34375 -16.09375 L 11.5625 -16.09375 L 11.5625 -14.21875 L 4.375 -14.21875 L 4.375 -8.640625 L 10.96875 -8.640625 L 10.96875 -6.78125 L 4.375 -6.78125 L 4.375 0 Z M 2.34375 0 "/></g></g></g><g fill="#ebe8e8" fill-opacity="1"><g transform="translate(819.372229, 441.724942)"><g/></g></g><g fill="#ebe8e8" fill-opacity="1"><g transform="translate(843.474493, 441.724942)"><g><path d="M 5.65625 0 L 0.4375 -16.09375 L 2.546875 -16.09375 L 4.78125 -9.15625 L 6.671875 -3.25 L 11.4375 -16.09375 L 13.34375 -16.09375 L 18.09375 -3.21875 L 22.234375 -16.09375 L 24.359375 -16.09375 L 19.109375 0 L 17.234375 0 L 15.046875 -5.859375 L 12.375 -13.046875 L 7.546875 0 Z M 5.65625 0 "/></g></g></g><g fill="#ebe8e8" fill-opacity="1"><g transform="translate(886.660327, 441.724942)"><g><path d="M 2.34375 0 L 2.34375 -16.09375 L 12.125 -16.09375 L 12.125 -14.21875 L 4.375 -14.21875 L 4.375 -9.125 L 11.546875 -9.125 L 11.546875 -7.265625 L 4.375 -7.265625 L 4.375 -1.890625 L 12.375 -1.890625 L 12.375 0 Z M 2.34375 0 "/></g></g></g><g fill="#ebe8e8" fill-opacity="1"><g transform="translate(918.924882, 441.724942)"><g><path d="M 2.34375 0 L 2.34375 -16.09375 L 8.578125 -16.09375 C 10.128906 -16.09375 11.367188 -15.707031 12.296875 -14.9375 C 13.222656 -14.164062 13.6875 -13.128906 13.6875 -11.828125 C 13.6875 -11.046875 13.5 -10.351562 13.125 -9.75 C 12.757812 -9.15625 12.25 -8.6875 11.59375 -8.34375 C 12.414062 -8.007812 13.046875 -7.507812 13.484375 -6.84375 C 13.921875 -6.1875 14.140625 -5.410156 14.140625 -4.515625 C 14.140625 -3.117188 13.664062 -2.015625 12.71875 -1.203125 C 11.78125 -0.398438 10.5 0 8.875 0 Z M 4.375 -1.890625 L 8.828125 -1.890625 C 9.867188 -1.890625 10.671875 -2.125 11.234375 -2.59375 C 11.796875 -3.070312 12.078125 -3.738281 12.078125 -4.59375 C 12.078125 -5.457031 11.789062 -6.125 11.21875 -6.59375 C 10.65625 -7.0625 9.851562 -7.296875 8.8125 -7.296875 L 4.375 -7.296875 Z M 4.375 -9.125 L 8.53125 -9.125 C 9.53125 -9.125 10.289062 -9.347656 10.8125 -9.796875 C 11.34375 -10.242188 11.609375 -10.863281 11.609375 -11.65625 C 11.609375 -12.46875 11.335938 -13.097656 10.796875 -13.546875 C 10.265625 -13.992188 9.507812 -14.21875 8.53125 -14.21875 L 4.375 -14.21875 Z M 4.375 -9.125 "/></g></g></g><g fill="#ebe8e8" fill-opacity="1"><g transform="translate(952.752884, 441.724942)"><g/></g></g><g fill="#ebe8e8" fill-opacity="1"><g transform="translate(976.855147, 441.724942)"><g><path d="M 2.34375 0 L 2.34375 -16.09375 L 7.90625 -16.09375 C 9.5625 -16.09375 11.003906 -15.75 12.234375 -15.0625 C 13.472656 -14.382812 14.4375 -13.441406 15.125 -12.234375 C 15.820312 -11.035156 16.171875 -9.640625 16.171875 -8.046875 C 16.171875 -6.472656 15.820312 -5.078125 15.125 -3.859375 C 14.4375 -2.648438 13.472656 -1.703125 12.234375 -1.015625 C 11.003906 -0.335938 9.5625 0 7.90625 0 Z M 4.375 -1.9375 L 7.90625 -1.9375 C 9.132812 -1.9375 10.210938 -2.191406 11.140625 -2.703125 C 12.066406 -3.210938 12.789062 -3.925781 13.3125 -4.84375 C 13.832031 -5.769531 14.09375 -6.835938 14.09375 -8.046875 C 14.09375 -9.273438 13.828125 -10.34375 13.296875 -11.25 C 12.773438 -12.164062 12.046875 -12.878906 11.109375 -13.390625 C 10.171875 -13.910156 9.070312 -14.171875 7.8125 -14.171875 L 4.375 -14.171875 Z M 4.375 -1.9375 "/></g></g></g><g fill="#ebe8e8" fill-opacity="1"><g transform="translate(1012.752423, 441.724942)"><g><path d="M 2.34375 0 L 2.34375 -16.09375 L 12.125 -16.09375 L 12.125 -14.21875 L 4.375 -14.21875 L 4.375 -9.125 L 11.546875 -9.125 L 11.546875 -7.265625 L 4.375 -7.265625 L 4.375 -1.890625 L 12.375 -1.890625 L 12.375 0 Z M 2.34375 0 "/></g></g></g><g fill="#ebe8e8" fill-opacity="1"><g transform="translate(1045.016978, 441.724942)"><g><path d="M 6.8125 0 L 0.390625 -16.09375 L 2.546875 -16.09375 L 5.21875 -9.3125 L 7.75 -2.921875 L 10.265625 -9.3125 L 12.953125 -16.09375 L 15.09375 -16.09375 L 8.6875 0 Z M 6.8125 0 "/></g></g></g><g fill="#ebe8e8" fill-opacity="1"><g transform="translate(1078.890939, 441.724942)"><g><path d="M 2.34375 0 L 2.34375 -16.09375 L 12.125 -16.09375 L 12.125 -14.21875 L 4.375 -14.21875 L 4.375 -9.125 L 11.546875 -9.125 L 11.546875 -7.265625 L 4.375 -7.265625 L 4.375 -1.890625 L 12.375 -1.890625 L 12.375 0 Z M 2.34375 0 "/></g></g></g><g fill="#ebe8e8" fill-opacity="1"><g transform="translate(1111.155494, 441.724942)"><g><path d="M 2.34375 0 L 2.34375 -16.09375 L 4.375 -16.09375 L 4.375 -1.9375 L 12.1875 -1.9375 L 12.1875 0 Z M 2.34375 0 "/></g></g></g><g fill="#ebe8e8" fill-opacity="1"><g transform="translate(1142.454351, 441.724942)"><g><path d="M 9.65625 0.296875 C 8.03125 0.296875 6.585938 -0.0546875 5.328125 -0.765625 C 4.078125 -1.484375 3.097656 -2.46875 2.390625 -3.71875 C 1.679688 -4.976562 1.328125 -6.421875 1.328125 -8.046875 C 1.328125 -9.691406 1.679688 -11.140625 2.390625 -12.390625 C 3.097656 -13.640625 4.078125 -14.617188 5.328125 -15.328125 C 6.585938 -16.046875 8.03125 -16.40625 9.65625 -16.40625 C 11.300781 -16.40625 12.75 -16.046875 14 -15.328125 C 15.25 -14.617188 16.226562 -13.640625 16.9375 -12.390625 C 17.65625 -11.140625 18.015625 -9.691406 18.015625 -8.046875 C 18.015625 -6.421875 17.65625 -4.976562 16.9375 -3.71875 C 16.226562 -2.46875 15.25 -1.484375 14 -0.765625 C 12.75 -0.0546875 11.300781 0.296875 9.65625 0.296875 Z M 3.40625 -8.046875 C 3.40625 -6.804688 3.664062 -5.707031 4.1875 -4.75 C 4.71875 -3.800781 5.453125 -3.054688 6.390625 -2.515625 C 7.335938 -1.984375 8.425781 -1.71875 9.65625 -1.71875 C 10.894531 -1.71875 11.984375 -1.984375 12.921875 -2.515625 C 13.859375 -3.054688 14.59375 -3.800781 15.125 -4.75 C 15.65625 -5.707031 15.921875 -6.804688 15.921875 -8.046875 C 15.921875 -9.304688 15.65625 -10.40625 15.125 -11.34375 C 14.59375 -12.289062 13.859375 -13.03125 12.921875 -13.5625 C 11.984375 -14.101562 10.894531 -14.375 9.65625 -14.375 C 8.425781 -14.375 7.335938 -14.101562 6.390625 -13.5625 C 5.453125 -13.03125 4.71875 -12.289062 4.1875 -11.34375 C 3.664062 -10.40625 3.40625 -9.304688 3.40625 -8.046875 Z M 3.40625 -8.046875 "/></g></g></g><g fill="#ebe8e8" fill-opacity="1"><g transform="translate(1180.168034, 441.724942)"><g><path d="M 2.34375 0 L 2.34375 -16.09375 L 7.796875 -16.09375 C 9.003906 -16.09375 10.054688 -15.867188 10.953125 -15.421875 C 11.859375 -14.984375 12.554688 -14.359375 13.046875 -13.546875 C 13.535156 -12.742188 13.78125 -11.789062 13.78125 -10.6875 C 13.78125 -9.582031 13.535156 -8.628906 13.046875 -7.828125 C 12.554688 -7.023438 11.859375 -6.398438 10.953125 -5.953125 C 10.054688 -5.515625 9.003906 -5.296875 7.796875 -5.296875 L 4.375 -5.296875 L 4.375 0 Z M 4.375 -7.171875 L 7.75 -7.171875 C 10.382812 -7.171875 11.703125 -8.335938 11.703125 -10.671875 C 11.703125 -13.003906 10.382812 -14.171875 7.75 -14.171875 L 4.375 -14.171875 Z M 4.375 -7.171875 "/></g></g></g><g fill="#ebe8e8" fill-opacity="1"><g transform="translate(1213.260317, 441.724942)"><g><path d="M 2.34375 0 L 2.34375 -16.09375 L 4.234375 -16.09375 L 10.5625 -6.5625 L 16.84375 -16.09375 L 18.71875 -16.09375 L 18.71875 0 L 16.703125 0 L 16.703125 -12.3125 L 11.359375 -4.28125 L 9.703125 -4.28125 L 4.375 -12.328125 L 4.375 0 Z M 2.34375 0 "/></g></g></g><g fill="#ebe8e8" fill-opacity="1"><g transform="translate(1252.721466, 441.724942)"><g><path d="M 2.34375 0 L 2.34375 -16.09375 L 12.125 -16.09375 L 12.125 -14.21875 L 4.375 -14.21875 L 4.375 -9.125 L 11.546875 -9.125 L 11.546875 -7.265625 L 4.375 -7.265625 L 4.375 -1.890625 L 12.375 -1.890625 L 12.375 0 Z M 2.34375 0 "/></g></g></g><g fill="#ebe8e8" fill-opacity="1"><g transform="translate(1284.986021, 441.724942)"><g><path d="M 2.34375 0 L 2.34375 -16.09375 L 4.25 -16.09375 L 13.15625 -3.5 L 13.15625 -16.09375 L 15.140625 -16.09375 L 15.140625 0 L 13.25 0 L 4.34375 -12.609375 L 4.34375 0 Z M 2.34375 0 "/></g></g></g><g fill="#ebe8e8" fill-opacity="1"><g transform="translate(1320.860317, 441.724942)"><g><path d="M 6.234375 0 L 6.234375 -14.171875 L 0.78125 -14.171875 L 0.78125 -16.09375 L 13.6875 -16.09375 L 13.6875 -14.171875 L 8.25 -14.171875 L 8.25 0 Z M 6.234375 0 "/></g></g></g><g fill="#ebe8e8" fill-opacity="1"><g transform="translate(1353.750822, 441.724942)"><g/></g></g></svg>